<svg id="Layer_1" xmlns="http://www.w3.org/2000/svg" viewBox="0 0 178.7 214.2"><style>.st1{fill:#ee4540}</style><path id="top" d="M58.8 66.6c-2.1-4.3-3.1-8.6-3.1-12.7 0-6.2 1.7-11.4 5-15.5 3.3-4.2 8.1-6.2 14.3-6.2 5.6 0 10.2 1.9 13.7 5.6 3.5 3.7 5.2 8 5.2 12.8 0 4.3-.9 8.3-2.8 11.9-1.7 3.4-5 6.6-9.7 9.8h38.9c4.1-7.3 6.1-15.3 6.1-24 0-13.4-4.8-24.8-14.3-34.2C103.7 5.5 92.9.9 79.7 0h-9.4c-15 .9-27.1 5.8-36.5 14.7-10.3 9.9-15.5 23.1-15.5 39.6 0 6 1 12 3.1 17.9h40.5c-1.2-2-2.2-3.9-3.1-5.6z" fill="#00a266"/><g id="middle"><path class="st1" d="M134.6 131.1c-1.2 4.2-2.7 8.2-4.5 12h34.6c2.7-10.2 4-21.3 4-33.3h-31.2c-.1 7.6-1 14.6-2.9 21.3zM119.5 73.8c.4-.6.7-1.3 1.1-2H82c-.5.4-1.1.7-1.6 1.1l-12.3 8c-2.5-3.2-4.6-6.3-6.4-9.1H21.3c.5 1.6 1.1 3.1 1.8 4.7 3.2 7.3 8 15.3 14.5 24.1C25 109.5 15.5 118 9.3 126.2c-3.9 5.1-6.5 10.7-8 17h42c.3-1 .7-2.1 1.1-3.1 1.8-4.3 5.1-8.8 10-13.4l2.7-1.9L73 143.2h47.9L87 103.6l13.3-9.5c8.1-5.8 14.5-12.6 19.2-20.3z"/></g><path id="bottom" d="M164.7 142.8h-34.5a57 57 0 0 1-3.7 6.9l-5.9-6.9H72.7l27.5 31.8c-4.7 2.6-9.6 4.5-14.6 5.8-5.1 1.3-10.1 1.9-15.2 1.9-8.5 0-15.4-2.7-20.6-8.2-5.3-5.5-7.9-12.5-7.9-21 0-3.5.6-6.9 1.7-10.4H1.4c-.9 3.9-1.4 8.1-1.4 12.5C0 172.8 6.2 187 18.5 198c10.5 9.4 24.2 14.7 41 16.1h17.3c6.7-.5 13-1.7 19.1-3.6 8.6-2.6 17-6.6 25.1-11.8l11 12.8h46.4l.3-.7-29.8-35a86.42 86.42 0 0 0 15.8-33z" fill="#9864fb"/></svg>