<svg id="Layer_1" xmlns="http://www.w3.org/2000/svg" viewBox="0 0 315.6 285.8"><style>.st2{opacity:.25}.st4{fill:#a0a0a0}.st5{fill:#b2b2b2}.st7{fill:#1e1e1e}.st8{fill:#061b28}.st11{fill:#111}.st12{fill:#232323}.st13{fill:#2d2d2d}.st15{fill:#1c1c1c}.st17{fill:#666}.st23{fill:#c6c6c6}.st24{fill:#141414}.st25{fill:#0c0c0c}.st26{fill:#161616}.st28{fill:#fff}.st29{fill:#d3d3d3}.st32{fill:#878787}.st35{fill:#727272}.st38{fill:#efcca3}</style><path opacity=".25" fill="#020202" d="M270.2 152l-12.8 12-12.7-6.7-42-48z"/><path class="st2" d="M108.1 257l2.3 2.2 4.1.3 5-.7 5.5-1.1 7.7-1.9 6.8-2.3 1-2.8zM90 241.5l2.2 2.2 4.2.3 5-.7 5.5-1.1 7.6-1.9 6.9-2.3 1-2.8zM311 192L123.4 94a8.27 8.27 0 0 0-8.2.2L57.4 129a8.43 8.43 0 0 0 .1 14.5L242 250.1c2.9 1.7 6.4 1.5 9.1-.4l60.9-43.4a8.4 8.4 0 0 0-1-14.3z"/><path class="st2" d="M69.9 258.7l47-30.4 2.5 9.2-50.2 30.2z"/><path class="st2" d="M128 184.2l-29.7 23.2c-4.5 3.5-4.8 10.3-.7 14.4l36.6 36.5c3.3 3.3 8.3 3.6 11.9.9l40.9-31c2.5-1.9 3.8-4.9 3.7-7.8"/><g id="Desk_Leg"><path fill="#c1c1c1" d="M184 278.6V274l6.8 3.8v4.5z"/><path class="st4" d="M190.8 277.8l46.6-27.9v4.5l-46.6 27.9z"/><path class="st5" d="M184 274l46.2-28 7.2 3.9-46.6 27.9z"/><g id="Chair_leg_2_"><path class="st5" d="M204.7 262.2v-97.6l6.6 3.7v97.3z"/><path class="st4" d="M211.3 265.6v-97.3l6.6-4.1v97.6z"/></g></g><path id="Leg_Bottom_1_" d="M110.6 166l-4.2 62.8c-.5 5.9-5.2 9.5-9.9 9.1-4.7-.4-6.7-3.6-6.3-9.5l3.4-63.8c.5-5.9 4.6-10.4 9.3-10 4.7.5 8.1 5.6 7.7 11.4z" fill="#02080c"/><path class="st7" d="M119.5 230.3c5.4 3.2-.9 5.5-10.4 8.7-9.5 3.3-16.8 5.1-18.5 3.3-1-1-2.6-11.7.4-11 6.5 1.6 9.9-3.1 15-1.8 4.4 1.1 6.6.3 8.4 0 3.2-.4 4.6.5 5.1.8z"/><path id="Leg_Bottom" class="st8" d="M127.9 180.8l-4.3 63.5c-.5 5.9-5 9.6-9.5 9.3-4.4-.3-6.4-3.6-6-9.6l3.6-64.5c.5-5.9 4.5-10.5 8.9-10.1 4.5.3 7.8 5.4 7.3 11.4z"/><path fill="#041219" d="M113.3 194.7l13.3 5.3-2.1 31.8-15.5-2.5.9-16.5z"/><g id="Chair_bottom"><g id="Chair_leg_1_"><path fill="#5b5b5b" d="M63.8 261.6v4.3l6.7 3.4V265z"/><path class="st7" d="M86.1 247.7l-22.3 13.9 6.7 3.4 22.3-13.9z"/><path class="st11" d="M70.5 265v4.3l22.3-13.7v-4.5z"/></g><g id="Chair_leg_2_1_"><path class="st12" d="M62.4 264.1l-24.9-13.3v4.4l24.9 13.3z"/><path class="st13" d="M67.4 260.2l-23.9-13.3-6 3.9 24.9 13.3z"/><path fill="#474747" d="M67.6 264.9l-.2-4.7-5 3.9v4.4z"/></g><g id="Chair_leg"><path class="st12" d="M38 277.3v4.3l6.6 3.5v-4.4z"/><path class="st13" d="M60.3 263.5L38 277.3l6.6 3.4 22.3-13.9z"/><path class="st15" d="M44.6 280.7v4.4l22.3-13.8v-4.5z"/></g><g id="Chair_leg_2"><path class="st12" d="M91.8 280.2l-24.9-13.4v4.4l24.9 13.4z"/><path class="st13" d="M96.8 276.2l-23.9-13.3-6 3.9 24.9 13.4z"/><path class="st15" d="M97 280.9l-.2-4.7-5 4v4.4z"/></g><g id="Chair_stand"><path class="st12" d="M60.1 192.8l.2 70.7 6.6 3.3v-65.5z"/><path class="st15" d="M66.9 201.3v65.5l6-3.9.2-70.6z"/></g><g id="Chair_base"><path class="st13" d="M21.2 211.8L63 234.1c3.4 1.8 7.6 1.8 11-.2l39.5-23.1c1.7-1 2.2-9.8.5-10.8l-50.4-20-43 20.6c-1.9 1.2-1.3 10.2.6 11.2z"/><path class="st5" d="M21.2 206.9L63 229.2c3.4 1.8 7.6 1.8 11-.2l39.5-23.1c1.7-1 2.2-9.8.5-10.8l-50.4-20-43 20.6c-1.9 1.3-1.3 10.2.6 11.2z"/><path d="M21.2 200.1L63 222.4c3.4 1.8 7.6 1.8 11-.2l39.5-23.1c1.7-1 1.6-3.4-.1-4.4l-49.8-26.4-42.5 27c-1.9 1.1-1.8 3.8.1 4.8z" fill="#8e8e8e"/></g></g><path class="st17" d="M71.7 211.1l2.8.1 3.1-.6 3-1.4 2-.9 3.9-2 4.2-2.5 9.9-5.8 6.5-4 2-1.3-1.5-1z"/><path id="Leg_top" class="st8" d="M121.1 184.3l-37.8 22.1c-3.9 1.8-11.5-2.9-13.3-6.8-1.8-3.9-1.7-11.4 2.2-13.2l42.4-16.1c3.9-1.8 8.5-.1 10.3 3.8 1.7 3.8 0 8.4-3.8 10.2z"/><path id="Leg_top_1_" d="M104.9 170.5l-37.8 22.1c-3.9 1.8-11.5-2.9-13.3-6.8-1.8-3.9-1.7-11.4 2.2-13.2l42.4-16.1c3.9-1.8 8.5-.1 10.3 3.8 1.7 3.8.1 8.4-3.8 10.2z" fill="#030e16"/><g id="Desk"><g id="Leg_2_"><linearGradient id="SVGID_1_" gradientUnits="userSpaceOnUse" x1="75.68" y1="107.65" x2="87.13" y2="107.65"><stop offset="0" stop-color="#413277"/><stop offset="1" stop-color="#1b1464"/></linearGradient><path fill="url(#SVGID_1_)" d="M87.1 59.4v103.1l-11.4-6.3V52.8z"/><linearGradient id="SVGID_2_" gradientUnits="userSpaceOnUse" x1="87.13" y1="106.78" x2="97.54" y2="106.78"><stop offset="0" stop-color="#1b1447"/><stop offset="1" stop-color="#1b1447"/></linearGradient><path fill="url(#SVGID_2_)" d="M97.5 51.1l-1 104.1-9.4 7.3V59.1z"/></g><path id="Desk_depth" d="M2.8 92.7l78.7-42.2c1.5-.9 4-1.3 5.6-.4l172.8 85.4c3.5 1.8 1 12-2.3 14l-79.5 49c-1.5.9-3.5 1-5.1.2L2.3 107.3c-3.4-1.8-2.9-12.5.5-14.6z" fill="#bfbfbf"/><path id="desk_top" d="M3.9 92.2l78.7-48.5c1.5-.9 4-1.3 5.6-.4l170.2 90.6c3.5 1.8 3.6 6.7.3 8.8l-79.5 49c-1.5.9-3.5 1-5.1.2L3.4 100.6c-3.5-1.9-2.9-6.3.5-8.4z" fill="#e2e2e2"/></g><path class="st23" d="M147 105l2 .6 20.8-6-14.8-8.5zM151.6 87.1l10.7-3.1 3.9 2 2.1 1.1-13.3 4z"/><g id="Monitor_2_"><g id="base"><path class="st24" d="M135 77.6l-6.7 12.3 18.7 11 20.3-4.6z"/><path class="st25" d="M167.3 96.3l-20.3 4.6v4.1l20-5.6z"/><path class="st12" d="M128.3 89.9V94l18.7 11v-4.1z"/></g><g id="Stand"><path class="st26" d="M146.3 74.9v17.9l5.2-3.5V72"/><path class="st12" d="M140.5 72v17.9l5.8 2.9V74.9"/></g><g id="Monitor_1_"><path class="st11" d="M191.8 41.5L190.6 94l-4.9 2.5 1.2-52.5"/><path class="st11" d="M113.6 0l78.2 41.5-4.9 2.5-78.1-41.6"/><path id="Monitor" fill="#262626" d="M186.9 44l-1.2 52.5-78.2-41.6 1.3-52.5"/></g><path class="st28" d="M111.2 6.1L110 53.7l73.2 39.1 1.3-47.6z"/></g><path class="st23" d="M160.5 138.1l1.1.4 8.1-4.8.3-1.2v-1.2l-1.5-1.6z"/><g id="Mouse"><path class="st25" d="M160.4 127.8l-2 4.1c-.7.4.2 2.7 1 3.1v3.2c.3.2.8.2 1.1 0l7.8-4.7c.7-.4.9-3.3.2-3.7l-7-2c-.3-.2-.7-.2-1.1 0z"/><path class="st13" d="M156.1 130.9l-3.7-.3c-.7.4-.5 3.3.2 3.7l6.8 3.8c.3.2.8.2 1.1 0l-.2-4.7c.7-.4.6-1.9-.2-2.3l-2.3-.2c-.2-.2-1.3-.2-1.7 0z"/><path class="st24" d="M160.4 125.8l-7.8 4.7c-.7.4-.7 1.5 0 1.9l6.8 3.8c.3.2.8.2 1.1 0l7.8-4.7c.7-.4.7-1.5 0-1.9l-6.8-3.8c-.3-.2-.7-.2-1.1 0z"/><path class="st29" d="M165.1 127.6l-2.9 1.7v.4l2.9-1.8zM161.2 128.8v.3l1 .6v-.4z"/><path class="st28" d="M164.1 127l-2.9 1.8 1 .5 2.9-1.7z"/></g><path id="Shoe" class="st7" d="M139.1 246.7c5.6 4.2-1.2 6.1-11.3 8.7-10.1 2.6-17.9 3.8-19.7 1.6-1-1.3-2.3-13.6.8-12.4 6.8 2.6 10.6-2.4 15.9-.3 4.6 1.8 7 1.1 8.9 1 3.5-.2 5 1 5.4 1.4z"/><path class="st23" d="M140.6 133.4l1.4.4 22.2-14.4-2-1zM107.9 156.7l4.7-31.3s-.8-8.5-1-9c-.2-.5-4.7-5.5-4.7-5.5l-11.3-5.3-21.3 4 8.3 33.3 25.3 13.8z"/><g id="Keyboard"><g id="Keyboard_base"><path class="st26" d="M140.6 131.5l22-14.2v2l-22 14.1z"/><path fill="#222" d="M86.2 102.4v-2l54.4 31.1v1.9z"/><path fill="#303030" d="M86.2 100.4l20.5-13 55.9 29.9-22 14.2z"/></g><g id="Key"><path class="st32" d="M108.2 90.8l-2.1 1.4v.3l2.1-1.4z"/><path class="st4" d="M104 91v.3l2.1 1.2v-.3z"/><path class="st5" d="M106.2 89.7L104 91l2.1 1.2 2.1-1.4z"/></g><g id="Key_22_"><path class="st32" d="M105.6 92.6l-2.1 1.4v.3l2.1-1.4z"/><path class="st4" d="M101.3 92.8v.3l2.2 1.2V94z"/><path class="st5" d="M103.5 91.5l-2.2 1.3 2.2 1.2 2.1-1.4z"/></g><g id="Key_36_"><path class="st32" d="M103.7 94.9l-2.1 1.3v.3l2.1-1.3z"/><path class="st4" d="M98.6 94.6v.2l3 1.7v-.3z"/><path class="st5" d="M100.8 93.2l-2.2 1.4 3 1.6 2.1-1.3z"/></g><g id="Key_23_"><path class="st32" d="M108.3 94.2l-2.1 1.3v.3l2.1-1.3z"/><path class="st4" d="M104.1 94.4v.2l2.1 1.2v-.3z"/><path class="st5" d="M106.3 93l-2.2 1.4 2.1 1.1 2.1-1.3z"/></g><g id="Key_37_"><path class="st32" d="M106.4 96.4l-2.1 1.4v.3l2.1-1.4z"/><path class="st4" d="M102.1 96.6v.3l2.2 1.2v-.3z"/><path class="st5" d="M104.3 95.3l-2.2 1.3 2.2 1.2 2.1-1.4z"/></g><g id="Key_38_"><path class="st32" d="M108.9 97.8l-2.1 1.4v.3l2.1-1.4z"/><path class="st4" d="M104.6 98v.3l2.2 1.2v-.3z"/><path class="st5" d="M106.8 96.7l-2.2 1.3 2.2 1.2 2.1-1.4z"/></g><g id="Key_39_"><path class="st32" d="M111.4 99.3l-2.1 1.4v.2l2.1-1.3z"/><path class="st4" d="M107.1 99.5v.3l2.2 1.1v-.2z"/><path class="st5" d="M109.3 98.2l-2.2 1.3 2.2 1.2 2.1-1.4z"/></g><g id="Key_40_"><path class="st32" d="M113.9 100.7l-2.1 1.4v.3l2.1-1.4z"/><path class="st4" d="M109.7 100.9v.3l2.1 1.2v-.3z"/><path class="st5" d="M111.8 99.6l-2.1 1.3 2.1 1.2 2.1-1.4z"/></g><g id="Key_41_"><path class="st32" d="M116.4 102.2l-2.1 1.3v.3l2.1-1.3z"/><path class="st4" d="M112.2 102.4v.3l2.1 1.1v-.3z"/><path class="st5" d="M114.3 101l-2.1 1.4 2.1 1.1 2.1-1.3z"/></g><g id="Key_42_"><path class="st32" d="M118.9 103.6l-2.1 1.4v.3l2.1-1.4z"/><path class="st4" d="M114.7 103.8v.3l2.1 1.2v-.3z"/><path class="st5" d="M116.9 102.5l-2.2 1.3 2.1 1.2 2.1-1.4z"/></g><g id="Key_43_"><path class="st32" d="M121.4 105.1l-2.1 1.3v.3l2.1-1.3z"/><path class="st4" d="M117.2 105.3v.2l2.1 1.2v-.3z"/><path class="st5" d="M119.4 103.9l-2.2 1.4 2.1 1.1 2.1-1.3z"/></g><g id="Key_44_"><path class="st32" d="M123.9 106.5l-2.1 1.4v.3l2.1-1.4z"/><path class="st4" d="M119.7 106.7v.3l2.1 1.2v-.3z"/><path class="st5" d="M121.9 105.4l-2.2 1.3 2.1 1.2 2.1-1.4z"/></g><g id="Key_45_"><path class="st32" d="M126.4 108l-2.1 1.3v.3l2.1-1.3z"/><path class="st4" d="M122.2 108.1v.3l2.1 1.2v-.3z"/><path class="st5" d="M124.4 106.8l-2.2 1.3 2.1 1.2 2.1-1.3z"/></g><g id="Key_46_"><path class="st32" d="M128.9 109.4l-2.1 1.4v.3l2.1-1.4z"/><path class="st4" d="M124.7 109.6v.3l2.1 1.2v-.3z"/><path class="st5" d="M126.9 108.3l-2.2 1.3 2.1 1.2 2.1-1.4z"/></g><g id="Key_47_"><path class="st32" d="M131.4 110.9l-2.1 1.3v.3l2.1-1.4z"/><path class="st4" d="M127.2 111v.3l2.1 1.2v-.3z"/><path class="st5" d="M129.4 109.7l-2.2 1.3 2.1 1.2 2.1-1.3z"/></g><g id="Key_48_"><path class="st32" d="M134 112.3l-2.2 1.4v.3l2.2-1.4z"/><path class="st4" d="M129.7 112.5v.3l2.1 1.2v-.3z"/><path class="st5" d="M131.9 111.2l-2.2 1.3 2.1 1.2 2.2-1.4z"/></g><g id="Key_49_"><path class="st32" d="M136.5 113.8l-2.2 1.3v.3l2.2-1.4z"/><path class="st4" d="M132.2 113.9v.3l2.1 1.2v-.3z"/><path class="st5" d="M134.4 112.6l-2.2 1.3 2.1 1.2 2.2-1.3z"/></g><g id="Key_50_"><path class="st32" d="M139 115.2l-2.2 1.4v.3l2.2-1.4z"/><path class="st4" d="M134.7 115.4v.3l2.1 1.2v-.3z"/><path class="st5" d="M136.9 114.1l-2.2 1.3 2.1 1.2 2.2-1.4z"/></g><g id="Key_51_"><path class="st32" d="M141.5 116.6l-2.2 1.4v.3l2.2-1.4z"/><path class="st4" d="M137.2 116.8v.3l2.1 1.2v-.3z"/><path class="st5" d="M139.4 115.5l-2.2 1.3 2.1 1.2 2.2-1.4z"/></g><g id="Key_67_"><path class="st32" d="M100.7 96.6L98.6 98v.3l2.1-1.4z"/><path class="st4" d="M95.6 96.3v.3l3 1.7V98z"/><path class="st5" d="M97.8 95l-2.2 1.3 3 1.7 2.1-1.4z"/></g><g id="Key_66_"><path class="st32" d="M103.4 98.1l-2.1 1.4v.3l2.1-1.4z"/><path class="st4" d="M99.1 98.3v.3l2.2 1.2v-.3z"/><path class="st5" d="M101.3 97l-2.2 1.3 2.2 1.2 2.1-1.4z"/></g><g id="Key_65_"><path class="st32" d="M105.9 99.6l-2.1 1.4v.2l2.1-1.3z"/><path class="st4" d="M101.6 99.8v.3l2.2 1.1v-.2z"/><path class="st5" d="M103.8 98.5l-2.2 1.3 2.2 1.2 2.1-1.4z"/></g><g id="Key_64_"><path class="st32" d="M108.4 101l-2.1 1.4v.3l2.1-1.4z"/><path class="st4" d="M104.1 101.2v.3l2.2 1.2v-.3z"/><path class="st5" d="M106.3 99.9l-2.2 1.3 2.2 1.2 2.1-1.4z"/></g><g id="Key_63_"><path class="st32" d="M110.9 102.5l-2.1 1.4v.2l2.1-1.3z"/><path class="st4" d="M106.7 102.7v.3l2.1 1.1v-.2z"/><path class="st5" d="M108.8 101.4l-2.1 1.3 2.1 1.2 2.1-1.4z"/></g><g id="Key_62_"><path class="st32" d="M113.4 103.9l-2.1 1.4v.3l2.1-1.4z"/><path class="st4" d="M109.2 104.1v.3l2.1 1.2v-.3z"/><path class="st5" d="M111.3 102.8l-2.1 1.3 2.1 1.2 2.1-1.4z"/></g><g id="Key_61_"><path class="st32" d="M115.9 105.4l-2.1 1.3v.3l2.1-1.3z"/><path class="st4" d="M111.7 105.6v.2l2.1 1.2v-.3z"/><path class="st5" d="M113.9 104.2l-2.2 1.4 2.1 1.1 2.1-1.3z"/></g><g id="Key_60_"><path class="st32" d="M118.4 106.8l-2.1 1.4v.3l2.1-1.4z"/><path class="st4" d="M114.2 107v.3l2.1 1.2v-.3z"/><path class="st5" d="M116.4 105.7l-2.2 1.3 2.1 1.2 2.1-1.4z"/></g><g id="Key_59_"><path class="st32" d="M120.9 108.3l-2.1 1.3v.3l2.1-1.3z"/><path class="st4" d="M116.7 108.5v.2l2.1 1.2v-.3z"/><path class="st5" d="M118.9 107.1l-2.2 1.4 2.1 1.1 2.1-1.3z"/></g><g id="Key_58_"><path class="st32" d="M123.4 109.7l-2.1 1.4v.3l2.1-1.4z"/><path class="st4" d="M119.2 109.9v.3l2.1 1.2v-.3z"/><path class="st5" d="M121.4 108.6l-2.2 1.3 2.1 1.2 2.1-1.4z"/></g><g id="Key_57_"><path class="st32" d="M125.9 111.2l-2.1 1.3v.3l2.1-1.3z"/><path class="st4" d="M121.7 111.3v.3l2.1 1.2v-.3z"/><path class="st5" d="M123.9 110l-2.2 1.3 2.1 1.2 2.1-1.3z"/></g><g id="Key_56_"><path class="st32" d="M128.4 112.6l-2.1 1.4v.3l2.1-1.4z"/><path class="st4" d="M124.2 112.8v.3l2.1 1.2v-.3z"/><path class="st5" d="M126.4 111.5l-2.2 1.3 2.1 1.2 2.1-1.4z"/></g><g id="Key_55_"><path class="st32" d="M131 114.1l-2.2 1.3v.3l2.2-1.4z"/><path class="st4" d="M126.7 114.2v.3l2.1 1.2v-.3z"/><path class="st5" d="M128.9 112.9l-2.2 1.3 2.1 1.2 2.2-1.3z"/></g><g id="Key_54_"><path class="st32" d="M133.5 115.5l-2.2 1.4v.3l2.2-1.4z"/><path class="st4" d="M129.2 115.7v.3l2.1 1.2v-.3z"/><path class="st5" d="M131.4 114.4l-2.2 1.3 2.1 1.2 2.2-1.4z"/></g><g id="Key_53_"><path class="st32" d="M136 116.9l-2.2 1.4v.3l2.2-1.4z"/><path class="st4" d="M131.7 117.1v.3l2.1 1.2v-.3z"/><path class="st5" d="M133.9 115.8l-2.2 1.3 2.1 1.2 2.2-1.4z"/></g><g id="Key_52_"><path class="st32" d="M138.5 118.4l-2.2 1.4v.3l2.2-1.4z"/><path class="st4" d="M134.2 118.6v.3l2.1 1.2v-.3z"/><path class="st5" d="M136.4 117.3l-2.2 1.3 2.1 1.2 2.2-1.4z"/></g><g id="Key_83_"><path class="st32" d="M97.7 98.4l-2.1 1.3v.3l2.1-1.3z"/><path class="st4" d="M92.6 98.1v.2l3 1.7v-.3z"/><path class="st5" d="M94.8 96.7l-2.2 1.4 3 1.6 2.1-1.3z"/></g><g id="Key_82_"><path class="st32" d="M100.4 99.9l-2.1 1.4v.3l2.1-1.4z"/><path class="st4" d="M96.1 100.1v.3l2.2 1.2v-.3z"/><path class="st5" d="M98.3 98.8l-2.2 1.3 2.2 1.2 2.1-1.4z"/></g><g id="Key_81_"><path class="st32" d="M102.9 101.3l-2.1 1.4v.3l2.1-1.4z"/><path class="st4" d="M98.6 101.5v.3l2.2 1.2v-.3z"/><path class="st5" d="M100.8 100.2l-2.2 1.3 2.2 1.2 2.1-1.4z"/></g><g id="Key_80_"><path class="st32" d="M105.4 102.8l-2.1 1.4v.2l2.1-1.3z"/><path class="st4" d="M101.1 103v.3l2.2 1.1v-.2z"/><path class="st5" d="M103.3 101.7l-2.2 1.3 2.2 1.2 2.1-1.4z"/></g><g id="Key_79_"><path class="st32" d="M107.9 104.2l-2.1 1.4v.3l2.1-1.4z"/><path class="st4" d="M103.7 104.4v.3l2.1 1.2v-.3z"/><path class="st5" d="M105.8 103.1l-2.1 1.3 2.1 1.2 2.1-1.4z"/></g><g id="Key_78_"><path class="st32" d="M110.4 105.7l-2.1 1.3v.3l2.1-1.3z"/><path class="st4" d="M106.2 105.9v.3l2.1 1.1v-.3z"/><path class="st5" d="M108.3 104.5l-2.1 1.4 2.1 1.1 2.1-1.3z"/></g><g id="Key_77_"><path class="st32" d="M112.9 107.1l-2.1 1.4v.3l2.1-1.4z"/><path class="st4" d="M108.7 107.3v.3l2.1 1.2v-.3z"/><path class="st5" d="M110.9 106l-2.2 1.3 2.1 1.2 2.1-1.4z"/></g><g id="Key_76_"><path class="st32" d="M115.4 108.6l-2.1 1.3v.3l2.1-1.3z"/><path class="st4" d="M111.2 108.8v.2l2.1 1.2v-.3z"/><path class="st5" d="M113.4 107.4l-2.2 1.4 2.1 1.1 2.1-1.3z"/></g><g id="Key_75_"><path class="st32" d="M117.9 110l-2.1 1.4v.3l2.1-1.4z"/><path class="st4" d="M113.7 110.2v.3l2.1 1.2v-.3z"/><path class="st5" d="M115.9 108.9l-2.2 1.3 2.1 1.2 2.1-1.4z"/></g><g id="Key_74_"><path class="st32" d="M120.4 111.5l-2.1 1.3v.3l2.1-1.3z"/><path class="st4" d="M116.2 111.6v.3l2.1 1.2v-.3z"/><path class="st5" d="M118.4 110.3l-2.2 1.3 2.1 1.2 2.1-1.3z"/></g><g id="Key_73_"><path class="st32" d="M122.9 112.9l-2.1 1.4v.3l2.1-1.4z"/><path class="st4" d="M118.7 113.1v.3l2.1 1.2v-.3z"/><path class="st5" d="M120.9 111.8l-2.2 1.3 2.1 1.2 2.1-1.4z"/></g><g id="Key_72_"><path class="st32" d="M125.4 114.4l-2.1 1.3v.3l2.1-1.4z"/><path class="st4" d="M121.2 114.5v.3l2.1 1.2v-.3z"/><path class="st5" d="M123.4 113.2l-2.2 1.3 2.1 1.2 2.1-1.3z"/></g><g id="Key_71_"><path class="st32" d="M128 115.8l-2.2 1.4v.3l2.2-1.4z"/><path class="st4" d="M123.7 116v.3l2.1 1.2v-.3z"/><path class="st5" d="M125.9 114.7l-2.2 1.3 2.1 1.2 2.2-1.4z"/></g><g id="Key_70_"><path class="st32" d="M130.5 117.3l-2.2 1.3v.3l2.2-1.4z"/><path class="st4" d="M126.2 117.4v.3l2.1 1.2v-.3z"/><path class="st5" d="M128.4 116.1l-2.2 1.3 2.1 1.2 2.2-1.3z"/></g><g id="Key_69_"><path class="st32" d="M133 118.7l-2.2 1.4v.3l2.2-1.4z"/><path class="st4" d="M128.7 118.9v.3l2.1 1.2v-.3z"/><path class="st5" d="M130.9 117.6l-2.2 1.3 2.1 1.2 2.2-1.4z"/></g><g id="Key_68_"><path class="st32" d="M135.5 120.1l-2.2 1.4v.3l2.2-1.4z"/><path class="st4" d="M131.2 120.3v.3l2.1 1.2v-.3z"/><path class="st5" d="M133.4 119l-2.2 1.3 2.1 1.2 2.2-1.4z"/></g><g id="Key_99_"><path class="st32" d="M94.7 100.1l-2.1 1.4v.3l2.1-1.4z"/><path class="st4" d="M89.6 99.8v.3l3 1.7v-.3z"/><path class="st5" d="M91.8 98.5l-2.2 1.3 3 1.7 2.1-1.4z"/></g><g id="Key_98_"><path class="st32" d="M97.4 101.6l-2.1 1.4v.3l2.1-1.4z"/><path class="st4" d="M93.1 101.8v.3l2.2 1.2v-.3z"/><path class="st5" d="M95.3 100.5l-2.2 1.3 2.2 1.2 2.1-1.4z"/></g><g id="Key_97_"><path class="st32" d="M99.9 103.1l-2.1 1.4v.2l2.1-1.3z"/><path class="st4" d="M95.6 103.3v.3l2.2 1.1v-.2z"/><path class="st5" d="M97.8 102l-2.2 1.3 2.2 1.2 2.1-1.4z"/></g><g id="Key_96_"><path class="st32" d="M119.9 114.7l-2.1 1.3v.3l2.1-1.3z"/><path class="st4" d="M98.1 104.7v.3l19.7 11.3v-.3z"/><path class="st5" d="M100.3 103.4l-2.2 1.3 19.7 11.3 2.1-1.3z"/></g><g id="Key_88_"><path class="st32" d="M122.4 116.1l-2.1 1.4v.3l2.1-1.4z"/><path class="st4" d="M118.2 116.3v.3l2.1 1.2v-.3z"/><path class="st5" d="M120.4 115l-2.2 1.3 2.1 1.2 2.1-1.4z"/></g><g id="Key_87_"><path class="st32" d="M125 117.6l-2.2 1.3v.3l2.2-1.4z"/><path class="st4" d="M120.7 117.7v.3l2.1 1.2v-.3z"/><path class="st5" d="M122.9 116.4l-2.2 1.3 2.1 1.2 2.2-1.3z"/></g><g id="Key_86_"><path class="st32" d="M127.5 119l-2.2 1.4v.3l2.2-1.4z"/><path class="st4" d="M123.2 119.2v.3l2.1 1.2v-.3z"/><path class="st5" d="M125.4 117.9l-2.2 1.3 2.1 1.2 2.2-1.4z"/></g><g id="Key_85_"><path class="st32" d="M130 120.4l-2.2 1.4v.3l2.2-1.4z"/><path class="st4" d="M125.7 120.6v.3l2.1 1.2v-.3z"/><path class="st5" d="M127.9 119.3l-2.2 1.3 2.1 1.2 2.2-1.4z"/></g><g id="Key_84_"><path class="st32" d="M132.5 121.9l-2.2 1.4v.3l2.2-1.4z"/><path class="st4" d="M128.2 122.1v.3l2.1 1.2v-.3z"/><path class="st5" d="M130.4 120.8l-2.2 1.3 2.1 1.2 2.2-1.4z"/></g><g id="Key_24_"><path class="st32" d="M111.1 95.8l-2.1 1.3v.3l2.1-1.4z"/><path class="st4" d="M106.8 95.9v.3l2.2 1.2v-.3z"/><path class="st5" d="M109 94.6l-2.2 1.3 2.2 1.2 2.1-1.3z"/></g><g id="Key_25_"><path class="st32" d="M113.8 97.3l-2.1 1.4v.3l2.1-1.4z"/><path class="st4" d="M109.6 97.5v.3l2.1 1.2v-.3z"/><path class="st5" d="M111.8 96.2l-2.2 1.3 2.1 1.2 2.1-1.4z"/></g><g id="Key_26_"><path class="st32" d="M116.6 98.9l-2.1 1.4v.3l2.1-1.4z"/><path class="st4" d="M112.3 99.1v.3l2.2 1.2v-.3z"/><path class="st5" d="M114.5 97.8l-2.2 1.3 2.2 1.2 2.1-1.4z"/></g><g id="Key_27_"><path class="st32" d="M119.3 100.5l-2.1 1.4v.3l2.1-1.4z"/><path class="st4" d="M115.1 100.7v.3l2.1 1.2v-.3z"/><path class="st5" d="M117.3 99.4l-2.2 1.3 2.1 1.2 2.1-1.4z"/></g><g id="Key_28_"><path class="st32" d="M122.1 102.1l-2.1 1.4v.3l2.1-1.4z"/><path class="st4" d="M117.8 102.3v.3l2.2 1.2v-.3z"/><path class="st5" d="M120 101l-2.2 1.3 2.2 1.2 2.1-1.4z"/></g><g id="Key_29_"><path class="st32" d="M124.8 103.7l-2.1 1.3v.3l2.1-1.3z"/><path class="st4" d="M120.6 103.9v.2l2.1 1.2v-.3z"/><path class="st5" d="M122.8 102.5l-2.2 1.4 2.1 1.1 2.1-1.3z"/></g><g id="Key_30_"><path class="st32" d="M127.6 105.3l-2.1 1.3v.3l2.1-1.4z"/><path class="st4" d="M123.3 105.4v.3l2.2 1.2v-.3z"/><path class="st5" d="M125.5 104.1l-2.2 1.3 2.2 1.2 2.1-1.3z"/></g><g id="Key_31_"><path class="st32" d="M130.3 106.8l-2.1 1.4v.3l2.1-1.4z"/><path class="st4" d="M126.1 107v.3l2.1 1.2v-.3z"/><path class="st5" d="M128.3 105.7l-2.2 1.3 2.1 1.2 2.1-1.4z"/></g><g id="Key_32_"><path class="st32" d="M133.1 108.4l-2.1 1.4v.3l2.1-1.4z"/><path class="st4" d="M128.8 108.6v.3l2.2 1.2v-.3z"/><path class="st5" d="M131 107.3l-2.2 1.3 2.2 1.2 2.1-1.4z"/></g><g id="Key_33_"><path class="st32" d="M135.8 110l-2.1 1.4v.3l2.1-1.4z"/><path class="st4" d="M131.6 110.2v.3l2.1 1.2v-.3z"/><path class="st5" d="M133.8 108.9l-2.2 1.3 2.1 1.2 2.1-1.4z"/></g><g id="Key_34_"><path class="st32" d="M138.6 111.6l-2.1 1.4v.3l2.1-1.4z"/><path class="st4" d="M134.3 111.8v.3l2.2 1.2v-.3z"/><path class="st5" d="M136.5 110.5l-2.2 1.3 2.2 1.2 2.1-1.4z"/></g><g id="Key_35_"><path class="st32" d="M144.7 115l-2.1 1.4v.3l2.1-1.4z"/><path class="st4" d="M137.1 113.4v.2l5.5 3.1v-.3z"/><path class="st5" d="M139.3 112l-2.2 1.4 5.5 3 2.1-1.4z"/></g><g id="Key_1_"><path class="st32" d="M113 93.5l-2.2 1.3v.3l2.2-1.3z"/><path class="st4" d="M108.7 93.6v.3l2.1 1.2v-.3z"/><path class="st5" d="M110.9 92.3l-2.2 1.3 2.1 1.2 2.2-1.3z"/></g><g id="Key_2_"><path class="st32" d="M115.8 95l-2.1 1.4v.3l2.1-1.4z"/><path class="st4" d="M111.6 95.2v.3l2.1 1.2v-.3z"/><path class="st5" d="M113.8 93.9l-2.2 1.3 2.1 1.2 2.1-1.4z"/></g><g id="Key_3_"><path class="st32" d="M118.7 96.6l-2.1 1.4v.3l2.1-1.4z"/><path class="st4" d="M114.5 96.8v.3l2.1 1.2V98z"/><path class="st5" d="M116.6 95.5l-2.1 1.3 2.1 1.2 2.1-1.4z"/></g><g id="Key_4_"><path class="st32" d="M121.6 98.2l-2.1 1.4v.3l2.1-1.4z"/><path class="st4" d="M117.3 98.4v.3l2.2 1.2v-.3z"/><path class="st5" d="M119.5 97.1l-2.2 1.3 2.2 1.2 2.1-1.4z"/></g><g id="Key_8_"><path class="st32" d="M126.1 100.7L124 102v.3l2.1-1.3z"/><path class="st4" d="M121.9 100.9v.2l2.1 1.2v-.3z"/><path class="st5" d="M124.1 99.5l-2.2 1.4 2.1 1.1 2.1-1.3z"/></g><g id="Key_7_"><path class="st32" d="M129 102.3l-2.1 1.3v.3l2.1-1.4z"/><path class="st4" d="M124.7 102.4v.3l2.2 1.2v-.3z"/><path class="st5" d="M126.9 101.1l-2.2 1.3 2.2 1.2 2.1-1.3z"/></g><g id="Key_6_"><path class="st32" d="M131.9 103.8l-2.2 1.4v.3l2.2-1.4z"/><path class="st4" d="M127.6 104v.3l2.1 1.2v-.3z"/><path class="st5" d="M129.8 102.7l-2.2 1.3 2.1 1.2 2.2-1.4z"/></g><g id="Key_5_"><path class="st32" d="M134.7 105.4l-2.1 1.4v.3l2.1-1.4z"/><path class="st4" d="M130.5 105.6v.3l2.1 1.2v-.3z"/><path class="st5" d="M132.7 104.3l-2.2 1.3 2.1 1.2 2.1-1.4z"/></g><g id="Key_12_"><path class="st32" d="M139.3 107.9l-2.1 1.4v.2l2.1-1.3z"/><path class="st4" d="M135 108.1v.3l2.2 1.1v-.2z"/><path class="st5" d="M137.2 106.8l-2.2 1.3 2.2 1.2 2.1-1.4z"/></g><g id="Key_11_"><path class="st32" d="M142.2 109.5l-2.2 1.3v.3l2.2-1.3z"/><path class="st4" d="M137.9 109.6v.3l2.1 1.2v-.3z"/><path class="st5" d="M140.1 108.3l-2.2 1.3 2.1 1.2 2.2-1.3z"/></g><g id="Key_10_"><path class="st32" d="M145 111l-2.1 1.4v.3l2.1-1.4z"/><path class="st4" d="M140.8 111.2v.3l2.1 1.2v-.3z"/><path class="st5" d="M143 109.9l-2.2 1.3 2.1 1.2 2.1-1.4z"/></g><g id="Key_9_"><path class="st32" d="M147.9 112.6l-2.1 1.4v.3l2.1-1.4z"/><path class="st4" d="M143.7 112.8v.3l2.1 1.2v-.3z"/><path class="st5" d="M145.8 111.5l-2.1 1.3 2.1 1.2 2.1-1.4z"/></g><g id="Key_15_"><path class="st32" d="M151.7 114.6l-2.2 1.4v.3l2.2-1.4z"/><path class="st4" d="M147.4 114.8v.3l2.1 1.2v-.3z"/><path class="st5" d="M149.6 113.5l-2.2 1.3 2.1 1.2 2.2-1.4z"/></g><g id="Key_14_"><path class="st32" d="M154.5 116.2l-2.1 1.3v.3l2.1-1.3z"/><path class="st4" d="M150.3 116.4v.2l2.1 1.2v-.3z"/><path class="st5" d="M152.5 115l-2.2 1.4 2.1 1.1 2.1-1.3z"/></g><g id="Key_13_"><path class="st32" d="M157.4 117.8l-2.1 1.3v.3l2.1-1.4z"/><path class="st4" d="M153.2 117.9v.3l2.1 1.2v-.3z"/><path class="st5" d="M155.3 116.6l-2.1 1.3 2.1 1.2 2.1-1.3z"/></g><g id="Key_18_"><path class="st32" d="M149 116.4l-2.1 1.4v.2l2.1-1.3z"/><path class="st4" d="M144.8 116.6v.3l2.1 1.1v-.2z"/><path class="st5" d="M147 115.3l-2.2 1.3 2.1 1.2 2.1-1.4z"/></g><g id="Key_17_"><path class="st32" d="M151.9 118l-2.1 1.3v.3l2.1-1.3z"/><path class="st4" d="M147.7 118.1v.3l2.1 1.2v-.3z"/><path class="st5" d="M149.8 116.8l-2.1 1.3 2.1 1.2 2.1-1.3z"/></g><g id="Key_16_"><path class="st32" d="M154.8 119.5l-2.1 1.4v.3l2.1-1.4z"/><path class="st4" d="M150.5 119.7v.3l2.2 1.2v-.3z"/><path class="st5" d="M152.7 118.4l-2.2 1.3 2.2 1.2 2.1-1.4z"/></g><g id="Key_21_"><path class="st32" d="M146.4 118.2l-2.1 1.3v.3l2.1-1.3z"/><path class="st4" d="M142.2 118.4v.2l2.1 1.2v-.3z"/><path class="st5" d="M144.3 117l-2.1 1.4 2.1 1.1 2.1-1.3z"/></g><g id="Key_20_"><path class="st32" d="M149.3 119.8l-2.1 1.3v.3l2.1-1.4z"/><path class="st4" d="M145 119.9v.3l2.2 1.2v-.3z"/><path class="st5" d="M147.2 118.6l-2.2 1.3 2.2 1.2 2.1-1.3z"/></g><g id="Key_19_"><path class="st32" d="M152.2 121.3l-2.2 1.4v.3l2.2-1.4z"/><path class="st4" d="M147.9 121.5v.3l2.1 1.2v-.3z"/><path class="st5" d="M150.1 120.2l-2.2 1.3 2.1 1.2 2.2-1.4z"/></g><g id="Key_92_"><path class="st32" d="M143 124.7l-2.1 1.4v.3l2.1-1.4z"/><path class="st4" d="M138.8 124.9v.3l2.1 1.2v-.3z"/><path class="st5" d="M141 123.6l-2.2 1.3 2.1 1.2 2.1-1.4z"/></g><g id="Key_91_"><path class="st32" d="M137.5 124.9l-2.1 1.4v.3l2.1-1.4z"/><path class="st4" d="M133.3 125.1v.3l2.1 1.2v-.3z"/><path class="st5" d="M135.5 123.8l-2.2 1.3 2.1 1.2 2.1-1.4z"/></g><g id="Key_90_"><path class="st32" d="M140.4 126.5l-2.1 1.4v.3l2.1-1.4z"/><path class="st4" d="M136.2 126.7v.3l2.1 1.2v-.3z"/><path class="st5" d="M138.3 125.4l-2.1 1.3 2.1 1.2 2.1-1.4z"/></g><g id="Key_89_"><path class="st32" d="M143.3 128.1l-2.1 1.4v.3l2.1-1.4z"/><path class="st4" d="M139 128.3v.3l2.2 1.2v-.3z"/><path class="st5" d="M141.2 127l-2.2 1.3 2.2 1.2 2.1-1.4z"/></g></g><g id="Arm_1_"><path d="M76.3 96.9l-17.6 18.5c-1.9 1.5-8.3-1.9-10.6-4.8-2.3-2.9-4.6-8.8-2.6-10.4l22.4-14c1.9-1.5 5.4-.4 7.8 2.6 2.2 2.9 2.5 6.5.6 8.1z" fill="#ffdbac"/><path d="M99.9 97.5l-27.6 1.6c-3.7 0-6.8-3.1-6.8-6.8 0-3.7 3.1-6.8 6.8-6.8l26.5 1.8c3.7 0 8.1 1.4 8 5.1.1 3.7-3.2 5.1-6.9 5.1z" fill="#e8c5a3"/><path class="st35" d="M65.4 108.9l-6.6 7.1c-2 1.6-8.7-2.2-11.2-5.3-2.5-3.2-5-9.4-3-11l8.5-5.5c3.9-3.3 4.9.8 7.4 3.9l2.5 3.1c2.6 3.2 4.4 6.1 2.4 7.7z"/></g><path id="Body" d="M68.8 211.3l-2.3.1c-18.9.2-26.6-25.6-25.4-39.5l1.2-55.8C43.7 102.4 52.2 92 63.5 89l19.2 6.3c12 1.5 16.2 13.8 14.9 27.7l-5.8 62.8c-1.2 13.7-10.9 25.3-23 25.5z" fill="#7c7c7c"/><path d="M43.4 110.9c5.6 2.7 44.3 20.9 45.2 31.2 0 .1.1 1.2.2 2.7.4 8-.7 14-1 16-2.8 17.2 0 21.1-3.7 30.2-.4 1-7.4 19.6-23.8 21.7-14 1.7-26.3-9.3-27.7-10.8-15.8-17.4-10.4-51.1 10.1-88.3.2-.5.4-2.2.7-2.7z" fill="#606060"/><path class="st17" d="M66.3 211.3h2.5c1 0-6.4 1.9-9.6 2-14.1.3-28.3-12.3-26.5-11.7 3.9 1.5 20.9 10.8 33.6 9.7z"/><path class="st23" d="M123 155.5l1.9.3 4.3-.1c.4 0 6.3-2 6.6-2.1s11.5-5.4 11.9-5.5 11.6-6.1 11.6-6.1l1.4-1.9-.1-1.8-37.6 17.2z"/><g id="Arm"><path class="st38" d="M118.2 153.3l-33.7-28c-3-3-1.2-11.8 1.8-14.9 3-3 10.2-5.5 13.2-2.5l29.7 34.3c3 3 3 7.9 0 11-3 3.1-7.9 3.1-11 .1z"/><path class="st38" d="M155 142.6l-28.8 12.6c-4 1.5-8.5-.6-10-4.6-1.5-4 .6-8.5 4.6-10l29-8.6c4-1.5 9.1-1.7 10.6 2.3 1.4 3.9-1.4 6.8-5.4 8.3z"/><path class="st35" d="M96.6 135.9l-12.8-10.5c-3.1-3.1-1-12.4 2.2-15.7 3.2-3.2 10.8-6 13.9-2.9l11.5 13.1c6.4 6.2 1.2 7.1-2.1 10.3l-3.2 3.2c-3.2 3.3-6.4 5.6-9.5 2.5z"/></g><g id="Chair_connectro"><path class="st13" d="M34.1 201.8l.1 19.6L41 225v-20.5z"/><path class="st7" d="M41 204.5V225l7-3.9v-20z"/></g><g id="Chair_back"><path d="M31.1 107.2c9.7 5.1 21.9 11.6 31.4 16.6 9.2 4.9 15.7 11.6 15.7 22.1v30c0 18.5-20.8 39-37.2 30.4l1.2-8.6c-17.3-9-28.1-26.9-27.8-46.4l-4.9-29.4c0-8.7 13.9-18.8 21.6-14.7z" fill="#212121"/><path d="M26 112.8c9.7 5.1 21.9 11.6 31.4 16.6 9.2 4.9 15 14.5 15 25v30c0 18.5-19.6 30.4-36 21.9-17.3-9-28.1-26.9-27.8-46.4l.4-37c.1-8.6 9.3-14.1 17-10.1z" fill="#353535"/></g><path id="Head" class="st38" d="M71.2 94.5c3.9 1.3 8 3.7 14.2 1.7 1.5-.5.1-6.8 4.3-8 5-1.4 11-7.3 11-16.3 0-14.5-2.3-19.9-5.2-23.8-6.2-8.5-19.1-10.4-28.7-7.4-3.3 1-9.1 2.2-13.3 12.1-6.2 14.7 9.6 24.4 7.2 31.5-2.7 7.7 7.5 9.1 10.5 10.2z"/><path id="collar" class="st23" d="M62.1 89.3c3.2 2.1 6 3.4 8 4.4 4.6 2.2 7.3 3 10.6 3.1 2.2.1 4.7-1 5.3-.8 1 .4 1.8.4 2.3 1.1.6.7-1.7 1.5-3.8 1.9-7.9 1.3-13.1-1.6-14.4-2.1-2.1-.8-3.9-2.1-8.4-4.8-1.1-.6-3-1.1-2.8-1.8.2-1 2.6-1 3.2-1z"/><path id="hair" d="M79.4 88.7c.2 2.4-19.8 1.5-19.4-.8 2.6-14.3-7.9-9.4-8.6-23.4-.1-2.3-.4-11.6 6.3-19.2C68.6 33 85.9 34.9 92.4 42.8c3 3.7 6.8 8 5.7 10.8-.4.9-.6 2.3-4.8 5.3-1.8 1.2-1.7 8.2-4.2 9.3-1.1.5-1.9-3.1-6.1-2-1.3.4-2.9 3.1-2.9 4.3-.1 4.3 2.7 5.1 2.6 6.5-.4 4.7-3.7 6.7-3.3 11.7z" fill="#1e1204"/><path class="st2" d="M190.8 282.3l3.9 1.5 46.5-28.5-3.8-.9zM44.6 285.1l3.6.7 21.5-13.1-2.8-1.5zM91.8 284.6l2.7.5 4.8-3.6-2.3-.6zM92.8 255.6l2.3.7-16.5 9.9-1.7-1z"/><path d="M217.8 253.2c.4 0 15.4-5.5 15.4-5.5l4.2 2.2-19.5 11.9-.1-8.6z" fill="#999"/></svg>