<svg id="Layer_1" xmlns="http://www.w3.org/2000/svg" xmlns:xlink="http://www.w3.org/1999/xlink" viewBox="0 0 430.7 430.7"><style>.st2{fill:#293c56}.st4{fill:#a0a0a0}.st5{fill:#b2b2b2}.st7{fill:#1e1e1e}.st8{fill:#061b28}.st11{fill:#111}.st12{fill:#232323}.st13{fill:#2d2d2d}.st15{fill:#1c1c1c}.st16{fill:#be2940}.st17{fill:#891637}.st18{fill:#6d1331}.st24{fill:#c6c6c6}.st25{fill:#141414}.st26{fill:#0c0c0c}.st27{fill:#161616}.st32{fill:#878787}.st35{fill:#727272}.st38{fill:#efcca3}.st40{enable-background:new}.st41{fill:#7b183e}.st42{fill:#8a1b45}.st44{fill:#661433}.st45{fill:#56112b}.st47{fill:#801940}.st48{fill:#7d183e}.st49{fill:#7a183d}.st50{fill:#76173b}.st51{fill:#73163a}.st52{fill:#701638}.st53{fill:#6d1536}.st54{fill:#6a1435}.st55{fill:#631332}.st56{fill:#601330}.st57{fill:#5d122e}.st58{fill:#5a112d}.st59{fill:#53102a}.st61{fill:#961d4b}.st62{fill:#9a1e4d}.st63{fill:#9d1e4e}.st64{fill:#a01f50}.st65{fill:#ab3a65}.st66{fill:#b0456e}.st67{fill:#b44e74}.st68{fill:#b7557a}.st69{fill:#b95b7f}.st70{fill:#931d4a}.st71{fill:#901c48}.st72{fill:#8d1b46}.st73{fill:#861a43}.st74{fill:#831942}</style><circle cx="215.3" cy="215.3" r="215.3" fill="#354c6f"/><path class="st2" d="M359 221l-24.5 21.3-72.5-38 29.5-26zM196.9 326l2.3 2.2 4.1.3 5-.7 5.5-1.1 7.7-1.9 6.8-2.3 1-2.8zM178.8 310.5l2.2 2.2 4.2.3 5-.7 5.5-1.1 7.6-1.9 6.9-2.3 1-2.8z"/><path class="st2" d="M399.8 261l-187.6-98a8.27 8.27 0 0 0-8.2.2L146.2 198a8.43 8.43 0 0 0 .1 14.5l184.5 106.6c2.9 1.7 6.4 1.5 9.1-.4l60.9-43.4a8.4 8.4 0 0 0-1-14.3zM158.7 327.7l52-33.7 6.3 8.3-59 34.4z"/><path class="st2" d="M186.3 290.8l36.6 36.5c3.3 3.3 8.3 3.6 11.9.9l40.9-31c5-3.8 4.9-11.5-.2-15.3l-7.9-11.3-14.7-5.8-20.4-15.3a9 9 0 0 0-11 0l-34.4 26.9c-4.5 3.5-4.8 10.3-.8 14.4z"/><g id="Desk_Leg"><path fill="#c1c1c1" d="M272.8 347.6V343l6.8 3.8v4.5z"/><path class="st4" d="M279.6 346.8l46.6-27.9v4.5l-46.6 27.9z"/><path class="st5" d="M272.8 343l46.2-28 7.2 3.9-46.6 27.9z"/><g id="Chair_leg_2_"><path class="st5" d="M293.5 331.2v-97.6l6.6 3.7v97.3z"/><path class="st4" d="M300.1 334.6v-97.3l6.6-4.1v97.6z"/></g></g><path id="Leg_Bottom_1_" d="M199.4 235l-4.2 62.8c-.5 5.9-5.2 9.5-9.9 9.1-4.7-.4-6.7-3.6-6.3-9.5l3.4-63.8c.5-5.9 4.6-10.4 9.3-10 4.7.5 8.1 5.6 7.7 11.4z" fill="#02080c"/><path class="st7" d="M208.3 299.3c5.4 3.2-.9 5.5-10.4 8.7-9.5 3.3-16.8 5.1-18.5 3.3-1-1-2.6-11.7.4-11 6.5 1.6 9.9-3.1 15-1.8 4.4 1.1 6.6.3 8.4 0 3.2-.4 4.6.5 5.1.8z"/><path id="Leg_Bottom" class="st8" d="M216.7 249.8l-4.3 63.5c-.5 5.9-5 9.6-9.5 9.3-4.4-.3-6.4-3.6-6-9.6l3.6-64.5c.5-5.9 4.5-10.5 8.9-10.1 4.5.3 7.8 5.4 7.3 11.4z"/><path fill="#041219" d="M202.1 263.7l13.3 5.3-2.1 31.8-15.5-2.5.9-16.5z"/><g id="Chair_bottom"><g id="Chair_leg_1_"><path fill="#5b5b5b" d="M152.6 330.6v4.3l6.7 3.4V334z"/><path class="st7" d="M174.9 316.7l-22.3 13.9 6.7 3.4 22.3-13.9z"/><path class="st11" d="M159.3 334v4.3l22.3-13.7v-4.5z"/></g><g id="Chair_leg_2_1_"><path class="st12" d="M151.2 333.1l-24.9-13.3v4.4l24.9 13.3z"/><path class="st13" d="M156.2 329.2l-23.9-13.3-6 3.9 24.9 13.3z"/><path fill="#474747" d="M156.4 333.9l-.2-4.7-5 3.9v4.4z"/></g><g id="Chair_leg"><path class="st12" d="M126.8 346.3v4.3l6.6 3.5v-4.4z"/><path class="st13" d="M149.1 332.5l-22.3 13.8 6.6 3.4 22.3-13.9z"/><path class="st15" d="M133.4 349.7v4.4l22.3-13.8v-4.5z"/></g><g id="Chair_leg_2"><path class="st12" d="M180.6 349.2l-24.9-13.4v4.4l24.9 13.4z"/><path class="st13" d="M185.6 345.2l-23.9-13.3-6 3.9 24.9 13.4z"/><path class="st15" d="M185.8 349.9l-.2-4.7-5 4v4.4z"/></g><g id="Chair_stand"><path class="st12" d="M148.9 261.8l.2 70.7 6.6 3.3v-65.5z"/><path class="st15" d="M155.7 270.3v65.5l6-3.9.2-70.6z"/></g><g id="Chair_base"><path class="st13" d="M110 280.8l41.8 22.3c3.4 1.8 7.6 1.8 11-.2l39.5-23.1c1.7-1 2.2-9.8.5-10.8l-50.4-20-43 20.6c-1.9 1.2-1.3 10.2.6 11.2z"/><path class="st16" d="M110 275.9l41.8 22.3c3.4 1.8 7.6 1.8 11-.2l39.5-23.1c1.7-1 2.2-9.8.5-10.8l-50.4-20-43 20.6c-1.9 1.3-1.3 10.2.6 11.2z"/><path class="st17" d="M110 269.1l41.8 22.3c3.4 1.8 7.6 1.8 11-.2l39.5-23.1c1.7-1 1.6-3.4-.1-4.4l-49.8-26.4-42.5 27c-1.9 1.1-1.8 3.8.1 4.8z"/></g></g><path class="st18" d="M160.5 280.1l2.8.1 3.1-.6 3-1.4 2-.9 3.9-2 4.2-2.5 9.9-5.8 6.5-4 2-1.3-1.5-1z"/><path id="Leg_top" class="st8" d="M209.9 253.3L172 275.4c-3.9 1.8-11.5-2.9-13.3-6.8-1.8-3.9-1.7-11.4 2.2-13.2l42.4-16.1c3.9-1.8 8.5-.1 10.3 3.8 1.8 3.8.1 8.4-3.7 10.2z"/><path id="Leg_top_1_" d="M193.7 239.5l-37.8 22.1c-3.9 1.8-11.5-2.9-13.3-6.8-1.8-3.9-1.7-11.4 2.2-13.2l42.4-16.1c3.9-1.8 8.5-.1 10.3 3.8 1.7 3.8.1 8.4-3.8 10.2z" fill="#030e16"/><g id="Desk"><g id="Leg_2_"><linearGradient id="SVGID_1_" gradientUnits="userSpaceOnUse" x1="164.48" y1="176.65" x2="175.93" y2="176.65"><stop offset="0" stop-color="#413277"/><stop offset="1" stop-color="#1b1464"/></linearGradient><path fill="url(#SVGID_1_)" d="M175.9 128.4v103.1l-11.4-6.3V121.8z"/><linearGradient id="SVGID_2_" gradientUnits="userSpaceOnUse" x1="175.93" y1="175.78" x2="186.34" y2="175.78"><stop offset="0" stop-color="#1b1447"/><stop offset="1" stop-color="#1b1447"/></linearGradient><path fill="url(#SVGID_2_)" d="M186.3 120.1l-1 104.1-9.4 7.3V128.1z"/></g><path id="Desk_depth" d="M91.6 161.7l78.7-42.2c1.5-.9 4-1.3 5.6-.4l172.8 85.4c3.5 1.8 1 12-2.3 14l-79.5 49c-1.5.9-3.5 1-5.1.2L91.1 176.3c-3.4-1.8-2.9-12.5.5-14.6z" fill="#bfbfbf"/><path id="desk_top" d="M92.7 161.2l78.7-48.5c1.5-.9 4-1.3 5.6-.4l170.2 90.6c3.5 1.8 3.6 6.7.3 8.8l-79.5 49c-1.5.9-3.5 1-5.1.2L92.2 169.6c-3.5-1.9-2.9-6.3.5-8.4z" fill="#e2e2e2"/></g><path class="st24" d="M235.8 174l2 .6 20.8-6-14.8-8.5zM240.4 156.1l10.7-3.1 3.9 2 2.1 1.1-13.3 4z"/><g id="Monitor_2_"><g id="base"><path class="st25" d="M223.8 146.6l-6.7 12.3 18.7 11 20.3-4.6z"/><path class="st26" d="M256.1 165.3l-20.3 4.6v4.1l20-5.6z"/><path class="st12" d="M217.1 158.9v4.1l18.7 11v-4.1z"/></g><g id="Stand"><path class="st27" d="M235.1 143.9v17.9l5.2-3.5V141"/><path class="st12" d="M229.3 141v17.9l5.8 2.9v-17.9"/></g><g id="Monitor_1_"><path class="st11" d="M280.6 110.5l-1.2 52.5-4.9 2.5 1.2-52.5"/><path class="st11" d="M202.4 69l78.2 41.5-4.9 2.5-78.1-41.6"/><path id="Monitor" fill="#262626" d="M275.7 113l-1.2 52.5-78.2-41.6 1.3-52.5"/></g><path class="st16" d="M200 75.1l-1.2 47.6 73.2 39.1 1.3-47.6z"/></g><path class="st24" d="M249.3 207.1l1.1.4 8.1-4.8.3-1.2v-1.2l-1.5-1.6z"/><g id="Mouse"><path class="st26" d="M249.2 196.8l-2 4.1c-.7.4.2 2.7 1 3.1v3.2c.3.2.8.2 1.1 0l7.8-4.7c.7-.4.9-3.3.2-3.7l-7-2c-.3-.2-.7-.2-1.1 0z"/><path class="st13" d="M244.9 199.9l-3.7-.3c-.7.4-.5 3.3.2 3.7l6.8 3.8c.3.2.8.2 1.1 0l-.2-4.7c.7-.4.6-1.9-.2-2.3l-2.3-.2c-.2-.2-1.3-.2-1.7 0z"/><path class="st25" d="M249.2 194.8l-7.8 4.7c-.7.4-.7 1.5 0 1.9l6.8 3.8c.3.2.8.2 1.1 0l7.8-4.7c.7-.4.7-1.5 0-1.9l-6.8-3.8c-.3-.2-.7-.2-1.1 0z"/><path class="st17" d="M253.9 196.6l-2.9 1.7v.4l2.9-1.8z"/><path fill="#cc2f4e" d="M250 197.8v.3l1 .6v-.4z"/><path class="st16" d="M252.9 196l-2.9 1.8 1 .5 2.9-1.7z"/></g><path id="Shoe" class="st7" d="M227.9 315.7c5.6 4.2-1.2 6.1-11.3 8.7-10.1 2.6-17.9 3.8-19.7 1.6-1-1.3-2.3-13.6.8-12.4 6.8 2.6 10.6-2.4 15.9-.3 4.6 1.8 7 1.1 8.9 1 3.5-.2 5 1 5.4 1.4z"/><path class="st24" d="M229.4 202.4l1.4.4 22.2-14.4-2-1zM196.7 225.7l4.7-31.3s-.8-8.5-1-9c-.2-.5-4.7-5.5-4.7-5.5l-11.3-5.3-21.3 4 8.3 33.3 25.3 13.8z"/><g id="Keyboard"><g id="Keyboard_base"><path class="st27" d="M229.4 200.5l22-14.2v2l-22 14.1z"/><path fill="#222" d="M175 171.4v-2l54.4 31.1v1.9z"/><path fill="#303030" d="M175 169.4l20.5-13 55.9 29.9-22 14.2z"/></g><g id="Key"><path class="st32" d="M197 159.8l-2.1 1.4v.3l2.1-1.4z"/><path class="st4" d="M192.8 160v.3l2.1 1.2v-.3z"/><path class="st5" d="M195 158.7l-2.2 1.3 2.1 1.2 2.1-1.4z"/></g><g id="Key_22_"><path class="st32" d="M194.4 161.6l-2.1 1.4v.3l2.1-1.4z"/><path class="st4" d="M190.1 161.8v.3l2.2 1.2v-.3z"/><path class="st5" d="M192.3 160.5l-2.2 1.3 2.2 1.2 2.1-1.4z"/></g><g id="Key_36_"><path class="st32" d="M192.5 163.9l-2.1 1.3v.3l2.1-1.3z"/><path class="st4" d="M187.4 163.6v.2l3 1.7v-.3z"/><path class="st5" d="M189.6 162.2l-2.2 1.4 3 1.6 2.1-1.3z"/></g><g id="Key_23_"><path class="st32" d="M197.1 163.2l-2.1 1.3v.3l2.1-1.3z"/><path class="st4" d="M192.9 163.4v.2l2.1 1.2v-.3z"/><path class="st5" d="M195.1 162l-2.2 1.4 2.1 1.1 2.1-1.3z"/></g><g id="Key_37_"><path class="st32" d="M195.2 165.4l-2.1 1.4v.3l2.1-1.4z"/><path class="st4" d="M190.9 165.6v.3l2.2 1.2v-.3z"/><path class="st5" d="M193.1 164.3l-2.2 1.3 2.2 1.2 2.1-1.4z"/></g><g id="Key_38_"><path class="st32" d="M197.7 166.8l-2.1 1.4v.3l2.1-1.4z"/><path class="st4" d="M193.4 167v.3l2.2 1.2v-.3z"/><path class="st5" d="M195.6 165.7l-2.2 1.3 2.2 1.2 2.1-1.4z"/></g><g id="Key_39_"><path class="st32" d="M200.2 168.3l-2.1 1.4v.2l2.1-1.3z"/><path class="st4" d="M195.9 168.5v.3l2.2 1.1v-.2z"/><path class="st5" d="M198.1 167.2l-2.2 1.3 2.2 1.2 2.1-1.4z"/></g><g id="Key_40_"><path class="st32" d="M202.7 169.7l-2.1 1.4v.3l2.1-1.4z"/><path class="st4" d="M198.5 169.9v.3l2.1 1.2v-.3z"/><path class="st5" d="M200.6 168.6l-2.1 1.3 2.1 1.2 2.1-1.4z"/></g><g id="Key_41_"><path class="st32" d="M205.2 171.2l-2.1 1.3v.3l2.1-1.3z"/><path class="st4" d="M201 171.4v.3l2.1 1.1v-.3z"/><path class="st5" d="M203.1 170l-2.1 1.4 2.1 1.1 2.1-1.3z"/></g><g id="Key_42_"><path class="st32" d="M207.7 172.6l-2.1 1.4v.3l2.1-1.4z"/><path class="st4" d="M203.5 172.8v.3l2.1 1.2v-.3z"/><path class="st5" d="M205.7 171.5l-2.2 1.3 2.1 1.2 2.1-1.4z"/></g><g id="Key_43_"><path class="st32" d="M210.2 174.1l-2.1 1.3v.3l2.1-1.3z"/><path class="st4" d="M206 174.3v.2l2.1 1.2v-.3z"/><path class="st5" d="M208.2 172.9l-2.2 1.4 2.1 1.1 2.1-1.3z"/></g><g id="Key_44_"><path class="st32" d="M212.7 175.5l-2.1 1.4v.3l2.1-1.4z"/><path class="st4" d="M208.5 175.7v.3l2.1 1.2v-.3z"/><path class="st5" d="M210.7 174.4l-2.2 1.3 2.1 1.2 2.1-1.4z"/></g><g id="Key_45_"><path class="st32" d="M215.2 177l-2.1 1.3v.3l2.1-1.3z"/><path class="st4" d="M211 177.1v.3l2.1 1.2v-.3z"/><path class="st5" d="M213.2 175.8l-2.2 1.3 2.1 1.2 2.1-1.3z"/></g><g id="Key_46_"><path class="st32" d="M217.7 178.4l-2.1 1.4v.3l2.1-1.4z"/><path class="st4" d="M213.5 178.6v.3l2.1 1.2v-.3z"/><path class="st5" d="M215.7 177.3l-2.2 1.3 2.1 1.2 2.1-1.4z"/></g><g id="Key_47_"><path class="st32" d="M220.2 179.9l-2.1 1.3v.3l2.1-1.4z"/><path class="st4" d="M216 180v.3l2.1 1.2v-.3z"/><path class="st5" d="M218.2 178.7L216 180l2.1 1.2 2.1-1.3z"/></g><g id="Key_48_"><path class="st32" d="M222.8 181.3l-2.2 1.4v.3l2.2-1.4z"/><path class="st4" d="M218.5 181.5v.3l2.1 1.2v-.3z"/><path class="st5" d="M220.7 180.2l-2.2 1.3 2.1 1.2 2.2-1.4z"/></g><g id="Key_49_"><path class="st32" d="M225.3 182.8l-2.2 1.3v.3l2.2-1.4z"/><path class="st4" d="M221 182.9v.3l2.1 1.2v-.3z"/><path class="st5" d="M223.2 181.6l-2.2 1.3 2.1 1.2 2.2-1.3z"/></g><g id="Key_50_"><path class="st32" d="M227.8 184.2l-2.2 1.4v.3l2.2-1.4z"/><path class="st4" d="M223.5 184.4v.3l2.1 1.2v-.3z"/><path class="st5" d="M225.7 183.1l-2.2 1.3 2.1 1.2 2.2-1.4z"/></g><g id="Key_51_"><path class="st32" d="M230.3 185.6l-2.2 1.4v.3l2.2-1.4z"/><path class="st4" d="M226 185.8v.3l2.1 1.2v-.3z"/><path class="st5" d="M228.2 184.5l-2.2 1.3 2.1 1.2 2.2-1.4z"/></g><g id="Key_67_"><path class="st32" d="M189.5 165.6l-2.1 1.4v.3l2.1-1.4z"/><path class="st4" d="M184.4 165.3v.3l3 1.7v-.3z"/><path class="st5" d="M186.6 164l-2.2 1.3 3 1.7 2.1-1.4z"/></g><g id="Key_66_"><path class="st32" d="M192.2 167.1l-2.1 1.4v.3l2.1-1.4z"/><path class="st4" d="M187.9 167.3v.3l2.2 1.2v-.3z"/><path class="st5" d="M190.1 166l-2.2 1.3 2.2 1.2 2.1-1.4z"/></g><g id="Key_65_"><path class="st32" d="M194.7 168.6l-2.1 1.4v.2l2.1-1.3z"/><path class="st4" d="M190.4 168.8v.3l2.2 1.1v-.2z"/><path class="st5" d="M192.6 167.5l-2.2 1.3 2.2 1.2 2.1-1.4z"/></g><g id="Key_64_"><path class="st32" d="M197.2 170l-2.1 1.4v.3l2.1-1.4z"/><path class="st4" d="M192.9 170.2v.3l2.2 1.2v-.3z"/><path class="st5" d="M195.1 168.9l-2.2 1.3 2.2 1.2 2.1-1.4z"/></g><g id="Key_63_"><path class="st32" d="M199.7 171.5l-2.1 1.4v.2l2.1-1.3z"/><path class="st4" d="M195.5 171.7v.3l2.1 1.1v-.2z"/><path class="st5" d="M197.6 170.4l-2.1 1.3 2.1 1.2 2.1-1.4z"/></g><g id="Key_62_"><path class="st32" d="M202.2 172.9l-2.1 1.4v.3l2.1-1.4z"/><path class="st4" d="M198 173.1v.3l2.1 1.2v-.3z"/><path class="st5" d="M200.1 171.8l-2.1 1.3 2.1 1.2 2.1-1.4z"/></g><g id="Key_61_"><path class="st32" d="M204.7 174.4l-2.1 1.3v.3l2.1-1.3z"/><path class="st4" d="M200.5 174.6v.2l2.1 1.2v-.3z"/><path class="st5" d="M202.7 173.2l-2.2 1.4 2.1 1.1 2.1-1.3z"/></g><g id="Key_60_"><path class="st32" d="M207.2 175.8l-2.1 1.4v.3l2.1-1.4z"/><path class="st4" d="M203 176v.3l2.1 1.2v-.3z"/><path class="st5" d="M205.2 174.7L203 176l2.1 1.2 2.1-1.4z"/></g><g id="Key_59_"><path class="st32" d="M209.7 177.3l-2.1 1.3v.3l2.1-1.3z"/><path class="st4" d="M205.5 177.5v.2l2.1 1.2v-.3z"/><path class="st5" d="M207.7 176.1l-2.2 1.4 2.1 1.1 2.1-1.3z"/></g><g id="Key_58_"><path class="st32" d="M212.2 178.7l-2.1 1.4v.3l2.1-1.4z"/><path class="st4" d="M208 178.9v.3l2.1 1.2v-.3z"/><path class="st5" d="M210.2 177.6l-2.2 1.3 2.1 1.2 2.1-1.4z"/></g><g id="Key_57_"><path class="st32" d="M214.7 180.2l-2.1 1.3v.3l2.1-1.3z"/><path class="st4" d="M210.5 180.3v.3l2.1 1.2v-.3z"/><path class="st5" d="M212.7 179l-2.2 1.3 2.1 1.2 2.1-1.3z"/></g><g id="Key_56_"><path class="st32" d="M217.2 181.6l-2.1 1.4v.3l2.1-1.4z"/><path class="st4" d="M213 181.8v.3l2.1 1.2v-.3z"/><path class="st5" d="M215.2 180.5l-2.2 1.3 2.1 1.2 2.1-1.4z"/></g><g id="Key_55_"><path class="st32" d="M219.8 183.1l-2.2 1.3v.3l2.2-1.4z"/><path class="st4" d="M215.5 183.2v.3l2.1 1.2v-.3z"/><path class="st5" d="M217.7 181.9l-2.2 1.3 2.1 1.2 2.2-1.3z"/></g><g id="Key_54_"><path class="st32" d="M222.3 184.5l-2.2 1.4v.3l2.2-1.4z"/><path class="st4" d="M218 184.7v.3l2.1 1.2v-.3z"/><path class="st5" d="M220.2 183.4l-2.2 1.3 2.1 1.2 2.2-1.4z"/></g><g id="Key_53_"><path class="st32" d="M224.8 185.9l-2.2 1.4v.3l2.2-1.4z"/><path class="st4" d="M220.5 186.1v.3l2.1 1.2v-.3z"/><path class="st5" d="M222.7 184.8l-2.2 1.3 2.1 1.2 2.2-1.4z"/></g><g id="Key_52_"><path class="st32" d="M227.3 187.4l-2.2 1.4v.3l2.2-1.4z"/><path class="st4" d="M223 187.6v.3l2.1 1.2v-.3z"/><path class="st5" d="M225.2 186.3l-2.2 1.3 2.1 1.2 2.2-1.4z"/></g><g id="Key_83_"><path class="st32" d="M186.5 167.4l-2.1 1.3v.3l2.1-1.3z"/><path class="st4" d="M181.4 167.1v.2l3 1.7v-.3z"/><path class="st5" d="M183.6 165.7l-2.2 1.4 3 1.6 2.1-1.3z"/></g><g id="Key_82_"><path class="st32" d="M189.2 168.9l-2.1 1.4v.3l2.1-1.4z"/><path class="st4" d="M184.9 169.1v.3l2.2 1.2v-.3z"/><path class="st5" d="M187.1 167.8l-2.2 1.3 2.2 1.2 2.1-1.4z"/></g><g id="Key_81_"><path class="st32" d="M191.7 170.3l-2.1 1.4v.3l2.1-1.4z"/><path class="st4" d="M187.4 170.5v.3l2.2 1.2v-.3z"/><path class="st5" d="M189.6 169.2l-2.2 1.3 2.2 1.2 2.1-1.4z"/></g><g id="Key_80_"><path class="st32" d="M194.2 171.8l-2.1 1.4v.2l2.1-1.3z"/><path class="st4" d="M189.9 172v.3l2.2 1.1v-.2z"/><path class="st5" d="M192.1 170.7l-2.2 1.3 2.2 1.2 2.1-1.4z"/></g><g id="Key_79_"><path class="st32" d="M196.7 173.2l-2.1 1.4v.3l2.1-1.4z"/><path class="st4" d="M192.5 173.4v.3l2.1 1.2v-.3z"/><path class="st5" d="M194.6 172.1l-2.1 1.3 2.1 1.2 2.1-1.4z"/></g><g id="Key_78_"><path class="st32" d="M199.2 174.7l-2.1 1.3v.3l2.1-1.3z"/><path class="st4" d="M195 174.9v.3l2.1 1.1v-.3z"/><path class="st5" d="M197.1 173.5l-2.1 1.4 2.1 1.1 2.1-1.3z"/></g><g id="Key_77_"><path class="st32" d="M201.7 176.1l-2.1 1.4v.3l2.1-1.4z"/><path class="st4" d="M197.5 176.3v.3l2.1 1.2v-.3z"/><path class="st5" d="M199.7 175l-2.2 1.3 2.1 1.2 2.1-1.4z"/></g><g id="Key_76_"><path class="st32" d="M204.2 177.6l-2.1 1.3v.3l2.1-1.3z"/><path class="st4" d="M200 177.8v.2l2.1 1.2v-.3z"/><path class="st5" d="M202.2 176.4l-2.2 1.4 2.1 1.1 2.1-1.3z"/></g><g id="Key_75_"><path class="st32" d="M206.7 179l-2.1 1.4v.3l2.1-1.4z"/><path class="st4" d="M202.5 179.2v.3l2.1 1.2v-.3z"/><path class="st5" d="M204.7 177.9l-2.2 1.3 2.1 1.2 2.1-1.4z"/></g><g id="Key_74_"><path class="st32" d="M209.2 180.5l-2.1 1.3v.3l2.1-1.3z"/><path class="st4" d="M205 180.6v.3l2.1 1.2v-.3z"/><path class="st5" d="M207.2 179.3l-2.2 1.3 2.1 1.2 2.1-1.3z"/></g><g id="Key_73_"><path class="st32" d="M211.7 181.9l-2.1 1.4v.3l2.1-1.4z"/><path class="st4" d="M207.5 182.1v.3l2.1 1.2v-.3z"/><path class="st5" d="M209.7 180.8l-2.2 1.3 2.1 1.2 2.1-1.4z"/></g><g id="Key_72_"><path class="st32" d="M214.2 183.4l-2.1 1.3v.3l2.1-1.4z"/><path class="st4" d="M210 183.5v.3l2.1 1.2v-.3z"/><path class="st5" d="M212.2 182.2l-2.2 1.3 2.1 1.2 2.1-1.3z"/></g><g id="Key_71_"><path class="st32" d="M216.8 184.8l-2.2 1.4v.3l2.2-1.4z"/><path class="st4" d="M212.5 185v.3l2.1 1.2v-.3z"/><path class="st5" d="M214.7 183.7l-2.2 1.3 2.1 1.2 2.2-1.4z"/></g><g id="Key_70_"><path class="st32" d="M219.3 186.3l-2.2 1.3v.3l2.2-1.4z"/><path class="st4" d="M215 186.4v.3l2.1 1.2v-.3z"/><path class="st5" d="M217.2 185.1l-2.2 1.3 2.1 1.2 2.2-1.3z"/></g><g id="Key_69_"><path class="st32" d="M221.8 187.7l-2.2 1.4v.3l2.2-1.4z"/><path class="st4" d="M217.5 187.9v.3l2.1 1.2v-.3z"/><path class="st5" d="M219.7 186.6l-2.2 1.3 2.1 1.2 2.2-1.4z"/></g><g id="Key_68_"><path class="st32" d="M224.3 189.1l-2.2 1.4v.3l2.2-1.4z"/><path class="st4" d="M220 189.3v.3l2.1 1.2v-.3z"/><path class="st5" d="M222.2 188l-2.2 1.3 2.1 1.2 2.2-1.4z"/></g><g id="Key_99_"><path class="st32" d="M183.5 169.1l-2.1 1.4v.3l2.1-1.4z"/><path class="st4" d="M178.4 168.8v.3l3 1.7v-.3z"/><path class="st5" d="M180.6 167.5l-2.2 1.3 3 1.7 2.1-1.4z"/></g><g id="Key_98_"><path class="st32" d="M186.2 170.6l-2.1 1.4v.3l2.1-1.4z"/><path class="st4" d="M181.9 170.8v.3l2.2 1.2v-.3z"/><path class="st5" d="M184.1 169.5l-2.2 1.3 2.2 1.2 2.1-1.4z"/></g><g id="Key_97_"><path class="st32" d="M188.7 172.1l-2.1 1.4v.2l2.1-1.3z"/><path class="st4" d="M184.4 172.3v.3l2.2 1.1v-.2z"/><path class="st5" d="M186.6 171l-2.2 1.3 2.2 1.2 2.1-1.4z"/></g><g id="Key_96_"><path class="st32" d="M208.7 183.7l-2.1 1.3v.3l2.1-1.3z"/><path class="st4" d="M186.9 173.7v.3l19.7 11.3v-.3z"/><path class="st5" d="M189.1 172.4l-2.2 1.3 19.7 11.3 2.1-1.3z"/></g><g id="Key_88_"><path class="st32" d="M211.2 185.1l-2.1 1.4v.3l2.1-1.4z"/><path class="st4" d="M207 185.3v.3l2.1 1.2v-.3z"/><path class="st5" d="M209.2 184l-2.2 1.3 2.1 1.2 2.1-1.4z"/></g><g id="Key_87_"><path class="st32" d="M213.8 186.6l-2.2 1.3v.3l2.2-1.4z"/><path class="st4" d="M209.5 186.7v.3l2.1 1.2v-.3z"/><path class="st5" d="M211.7 185.4l-2.2 1.3 2.1 1.2 2.2-1.3z"/></g><g id="Key_86_"><path class="st32" d="M216.3 188l-2.2 1.4v.3l2.2-1.4z"/><path class="st4" d="M212 188.2v.3l2.1 1.2v-.3z"/><path class="st5" d="M214.2 186.9l-2.2 1.3 2.1 1.2 2.2-1.4z"/></g><g id="Key_85_"><path class="st32" d="M218.8 189.4l-2.2 1.4v.3l2.2-1.4z"/><path class="st4" d="M214.5 189.6v.3l2.1 1.2v-.3z"/><path class="st5" d="M216.7 188.3l-2.2 1.3 2.1 1.2 2.2-1.4z"/></g><g id="Key_84_"><path class="st32" d="M221.3 190.9l-2.2 1.4v.3l2.2-1.4z"/><path class="st4" d="M217 191.1v.3l2.1 1.2v-.3z"/><path class="st5" d="M219.2 189.8l-2.2 1.3 2.1 1.2 2.2-1.4z"/></g><g id="Key_24_"><path class="st32" d="M199.9 164.8l-2.1 1.3v.3l2.1-1.4z"/><path class="st4" d="M195.6 164.9v.3l2.2 1.2v-.3z"/><path class="st5" d="M197.8 163.6l-2.2 1.3 2.2 1.2 2.1-1.3z"/></g><g id="Key_25_"><path class="st32" d="M202.6 166.3l-2.1 1.4v.3l2.1-1.4z"/><path class="st4" d="M198.4 166.5v.3l2.1 1.2v-.3z"/><path class="st5" d="M200.6 165.2l-2.2 1.3 2.1 1.2 2.1-1.4z"/></g><g id="Key_26_"><path class="st32" d="M205.4 167.9l-2.1 1.4v.3l2.1-1.4z"/><path class="st4" d="M201.1 168.1v.3l2.2 1.2v-.3z"/><path class="st5" d="M203.3 166.8l-2.2 1.3 2.2 1.2 2.1-1.4z"/></g><g id="Key_27_"><path class="st32" d="M208.1 169.5l-2.1 1.4v.3l2.1-1.4z"/><path class="st4" d="M203.9 169.7v.3l2.1 1.2v-.3z"/><path class="st5" d="M206.1 168.4l-2.2 1.3 2.1 1.2 2.1-1.4z"/></g><g id="Key_28_"><path class="st32" d="M210.9 171.1l-2.1 1.4v.3l2.1-1.4z"/><path class="st4" d="M206.6 171.3v.3l2.2 1.2v-.3z"/><path class="st5" d="M208.8 170l-2.2 1.3 2.2 1.2 2.1-1.4z"/></g><g id="Key_29_"><path class="st32" d="M213.6 172.7l-2.1 1.3v.3l2.1-1.3z"/><path class="st4" d="M209.4 172.9v.2l2.1 1.2v-.3z"/><path class="st5" d="M211.6 171.5l-2.2 1.4 2.1 1.1 2.1-1.3z"/></g><g id="Key_30_"><path class="st32" d="M216.4 174.3l-2.1 1.3v.3l2.1-1.4z"/><path class="st4" d="M212.1 174.4v.3l2.2 1.2v-.3z"/><path class="st5" d="M214.3 173.1l-2.2 1.3 2.2 1.2 2.1-1.3z"/></g><g id="Key_31_"><path class="st32" d="M219.1 175.8l-2.1 1.4v.3l2.1-1.4z"/><path class="st4" d="M214.9 176v.3l2.1 1.2v-.3z"/><path class="st5" d="M217.1 174.7l-2.2 1.3 2.1 1.2 2.1-1.4z"/></g><g id="Key_32_"><path class="st32" d="M221.9 177.4l-2.1 1.4v.3l2.1-1.4z"/><path class="st4" d="M217.6 177.6v.3l2.2 1.2v-.3z"/><path class="st5" d="M219.8 176.3l-2.2 1.3 2.2 1.2 2.1-1.4z"/></g><g id="Key_33_"><path class="st32" d="M224.6 179l-2.1 1.4v.3l2.1-1.4z"/><path class="st4" d="M220.4 179.2v.3l2.1 1.2v-.3z"/><path class="st5" d="M222.6 177.9l-2.2 1.3 2.1 1.2 2.1-1.4z"/></g><g id="Key_34_"><path class="st32" d="M227.4 180.6l-2.1 1.4v.3l2.1-1.4z"/><path class="st4" d="M223.1 180.8v.3l2.2 1.2v-.3z"/><path class="st5" d="M225.3 179.5l-2.2 1.3 2.2 1.2 2.1-1.4z"/></g><g id="Key_35_"><path class="st32" d="M233.5 184l-2.1 1.4v.3l2.1-1.4z"/><path class="st4" d="M225.9 182.4v.2l5.5 3.1v-.3z"/><path class="st5" d="M228.1 181l-2.2 1.4 5.5 3 2.1-1.4z"/></g><g id="Key_1_"><path class="st32" d="M201.8 162.5l-2.2 1.3v.3l2.2-1.3z"/><path class="st4" d="M197.5 162.6v.3l2.1 1.2v-.3z"/><path class="st5" d="M199.7 161.3l-2.2 1.3 2.1 1.2 2.2-1.3z"/></g><g id="Key_2_"><path class="st32" d="M204.6 164l-2.1 1.4v.3l2.1-1.4z"/><path class="st4" d="M200.4 164.2v.3l2.1 1.2v-.3z"/><path class="st5" d="M202.6 162.9l-2.2 1.3 2.1 1.2 2.1-1.4z"/></g><g id="Key_3_"><path class="st32" d="M207.5 165.6l-2.1 1.4v.3l2.1-1.4z"/><path class="st4" d="M203.3 165.8v.3l2.1 1.2v-.3z"/><path class="st5" d="M205.4 164.5l-2.1 1.3 2.1 1.2 2.1-1.4z"/></g><g id="Key_4_"><path class="st32" d="M210.4 167.2l-2.1 1.4v.3l2.1-1.4z"/><path class="st4" d="M206.1 167.4v.3l2.2 1.2v-.3z"/><path class="st5" d="M208.3 166.1l-2.2 1.3 2.2 1.2 2.1-1.4z"/></g><g id="Key_8_"><path class="st32" d="M214.9 169.7l-2.1 1.3v.3l2.1-1.3z"/><path class="st4" d="M210.7 169.9v.2l2.1 1.2v-.3z"/><path class="st5" d="M212.9 168.5l-2.2 1.4 2.1 1.1 2.1-1.3z"/></g><g id="Key_7_"><path class="st32" d="M217.8 171.3l-2.1 1.3v.3l2.1-1.4z"/><path class="st4" d="M213.5 171.4v.3l2.2 1.2v-.3z"/><path class="st5" d="M215.7 170.1l-2.2 1.3 2.2 1.2 2.1-1.3z"/></g><g id="Key_6_"><path class="st32" d="M220.7 172.8l-2.2 1.4v.3l2.2-1.4z"/><path class="st4" d="M216.4 173v.3l2.1 1.2v-.3z"/><path class="st5" d="M218.6 171.7l-2.2 1.3 2.1 1.2 2.2-1.4z"/></g><g id="Key_5_"><path class="st32" d="M223.5 174.4l-2.1 1.4v.3l2.1-1.4z"/><path class="st4" d="M219.3 174.6v.3l2.1 1.2v-.3z"/><path class="st5" d="M221.5 173.3l-2.2 1.3 2.1 1.2 2.1-1.4z"/></g><g id="Key_12_"><path class="st32" d="M228.1 176.9l-2.1 1.4v.2l2.1-1.3z"/><path class="st4" d="M223.8 177.1v.3l2.2 1.1v-.2z"/><path class="st5" d="M226 175.8l-2.2 1.3 2.2 1.2 2.1-1.4z"/></g><g id="Key_11_"><path class="st32" d="M231 178.5l-2.2 1.3v.3l2.2-1.3z"/><path class="st4" d="M226.7 178.6v.3l2.1 1.2v-.3z"/><path class="st5" d="M228.9 177.3l-2.2 1.3 2.1 1.2 2.2-1.3z"/></g><g id="Key_10_"><path class="st32" d="M233.8 180l-2.1 1.4v.3l2.1-1.4z"/><path class="st4" d="M229.6 180.2v.3l2.1 1.2v-.3z"/><path class="st5" d="M231.8 178.9l-2.2 1.3 2.1 1.2 2.1-1.4z"/></g><g id="Key_9_"><path class="st32" d="M236.7 181.6l-2.1 1.4v.3l2.1-1.4z"/><path class="st4" d="M232.5 181.8v.3l2.1 1.2v-.3z"/><path class="st5" d="M234.6 180.5l-2.1 1.3 2.1 1.2 2.1-1.4z"/></g><g id="Key_15_"><path class="st32" d="M240.5 183.6l-2.2 1.4v.3l2.2-1.4z"/><path class="st4" d="M236.2 183.8v.3l2.1 1.2v-.3z"/><path class="st5" d="M238.4 182.5l-2.2 1.3 2.1 1.2 2.2-1.4z"/></g><g id="Key_14_"><path class="st32" d="M243.3 185.2l-2.1 1.3v.3l2.1-1.3z"/><path class="st4" d="M239.1 185.4v.2l2.1 1.2v-.3z"/><path class="st5" d="M241.3 184l-2.2 1.4 2.1 1.1 2.1-1.3z"/></g><g id="Key_13_"><path class="st32" d="M246.2 186.8l-2.1 1.3v.3l2.1-1.4z"/><path class="st4" d="M242 186.9v.3l2.1 1.2v-.3z"/><path class="st5" d="M244.1 185.6l-2.1 1.3 2.1 1.2 2.1-1.3z"/></g><g id="Key_18_"><path class="st32" d="M237.8 185.4l-2.1 1.4v.2l2.1-1.3z"/><path class="st4" d="M233.6 185.6v.3l2.1 1.1v-.2z"/><path class="st5" d="M235.8 184.3l-2.2 1.3 2.1 1.2 2.1-1.4z"/></g><g id="Key_17_"><path class="st32" d="M240.7 187l-2.1 1.3v.3l2.1-1.3z"/><path class="st4" d="M236.5 187.1v.3l2.1 1.2v-.3z"/><path class="st5" d="M238.6 185.8l-2.1 1.3 2.1 1.2 2.1-1.3z"/></g><g id="Key_16_"><path class="st32" d="M243.6 188.5l-2.1 1.4v.3l2.1-1.4z"/><path class="st4" d="M239.3 188.7v.3l2.2 1.2v-.3z"/><path class="st5" d="M241.5 187.4l-2.2 1.3 2.2 1.2 2.1-1.4z"/></g><g id="Key_21_"><path class="st32" d="M235.2 187.2l-2.1 1.3v.3l2.1-1.3z"/><path class="st4" d="M231 187.4v.2l2.1 1.2v-.3z"/><path class="st5" d="M233.1 186l-2.1 1.4 2.1 1.1 2.1-1.3z"/></g><g id="Key_20_"><path class="st32" d="M238.1 188.8l-2.1 1.3v.3l2.1-1.4z"/><path class="st4" d="M233.8 188.9v.3l2.2 1.2v-.3z"/><path class="st5" d="M236 187.6l-2.2 1.3 2.2 1.2 2.1-1.3z"/></g><g id="Key_19_"><path class="st32" d="M241 190.3l-2.2 1.4v.3l2.2-1.4z"/><path class="st4" d="M236.7 190.5v.3l2.1 1.2v-.3z"/><path class="st5" d="M238.9 189.2l-2.2 1.3 2.1 1.2 2.2-1.4z"/></g><g id="Key_92_"><path class="st32" d="M231.8 193.7l-2.1 1.4v.3l2.1-1.4z"/><path class="st4" d="M227.6 193.9v.3l2.1 1.2v-.3z"/><path class="st5" d="M229.8 192.6l-2.2 1.3 2.1 1.2 2.1-1.4z"/></g><g id="Key_91_"><path class="st32" d="M226.3 193.9l-2.1 1.4v.3l2.1-1.4z"/><path class="st4" d="M222.1 194.1v.3l2.1 1.2v-.3z"/><path class="st5" d="M224.3 192.8l-2.2 1.3 2.1 1.2 2.1-1.4z"/></g><g id="Key_90_"><path class="st32" d="M229.2 195.5l-2.1 1.4v.3l2.1-1.4z"/><path class="st4" d="M225 195.7v.3l2.1 1.2v-.3z"/><path class="st5" d="M227.1 194.4l-2.1 1.3 2.1 1.2 2.1-1.4z"/></g><g id="Key_89_"><path class="st32" d="M232.1 197.1l-2.1 1.4v.3l2.1-1.4z"/><path class="st4" d="M227.8 197.3v.3l2.2 1.2v-.3z"/><path class="st5" d="M230 196l-2.2 1.3 2.2 1.2 2.1-1.4z"/></g></g><g id="Arm_1_"><path d="M165.1 165.9l-17.6 18.5c-1.9 1.5-8.3-1.9-10.6-4.8-2.3-2.9-4.6-8.8-2.6-10.4l22.4-14c1.9-1.5 5.4-.4 7.8 2.6 2.2 2.9 2.5 6.5.6 8.1z" fill="#ffdbac"/><path d="M188.7 166.5l-27.6 1.6c-3.7 0-6.8-3.1-6.8-6.8 0-3.7 3.1-6.8 6.8-6.8l26.5 1.8c3.7 0 8.1 1.4 8 5.1.1 3.7-3.2 5.1-6.9 5.1z" fill="#e8c5a3"/><path class="st35" d="M154.2 177.9l-6.6 7.1c-2 1.6-8.7-2.2-11.2-5.3-2.5-3.2-5-9.4-3-11l8.5-5.5c3.9-3.3 4.9.8 7.4 3.9l2.5 3.1c2.6 3.2 4.4 6.1 2.4 7.7z"/></g><path id="Body" d="M157.6 280.3l-2.3.1c-18.9.2-26.6-25.6-25.4-39.5l1.2-55.8c1.3-13.8 9.8-24.2 21.1-27.2l19.2 6.3c12 1.5 16.2 13.8 14.9 27.7l-5.8 62.8c-1.1 13.8-10.8 25.4-22.9 25.6z" fill="#7c7c7c"/><path d="M132.2 179.9c5.6 2.7 44.3 20.9 45.2 31.2 0 .1.1 1.2.2 2.7.4 8-.7 14-1 16-2.8 17.2 0 21.1-3.7 30.2-.4 1-7.4 19.6-23.8 21.7-14 1.7-26.3-9.3-27.7-10.8-15.8-17.4-10.4-51.1 10.1-88.3.2-.5.4-2.2.7-2.7z" fill="#606060"/><path class="st18" d="M155.1 280.3h2.5c1 0-6.4 1.9-9.6 2-14.1.3-28.3-12.3-26.5-11.7 3.9 1.5 20.9 10.8 33.6 9.7z"/><path class="st24" d="M211.8 224.5l1.9.3 4.3-.1c.4 0 6.3-2 6.6-2.1s11.5-5.4 11.9-5.5 11.6-6.1 11.6-6.1l1.4-1.9-.1-1.8-37.6 17.2z"/><g id="Arm"><path class="st38" d="M207 222.3l-33.7-28c-3-3-1.2-11.8 1.8-14.9 3-3 10.2-5.5 13.2-2.5l29.7 34.3c3 3 3 7.9 0 11-3 3.1-7.9 3.1-11 .1z"/><path class="st38" d="M243.8 211.6L215 224.1c-4 1.5-8.5-.6-10-4.6-1.5-4 .6-8.5 4.6-10l29-8.6c4-1.5 9.1-1.7 10.6 2.3 1.4 4-1.4 6.9-5.4 8.4z"/><path class="st35" d="M185.4 204.9l-12.8-10.5c-3.1-3.1-1-12.4 2.2-15.7 3.2-3.2 10.8-6 13.9-2.9l11.5 13.1c6.4 6.2 1.2 7.1-2.1 10.3l-3.2 3.2c-3.2 3.3-6.4 5.6-9.5 2.5z"/></g><g id="Chair_connectro"><path class="st13" d="M122.9 270.8l.1 19.6 6.8 3.6v-20.5z"/><path class="st7" d="M129.8 273.5V294l7-3.9v-20z"/></g><g id="Chair_back"><path class="st17" d="M119.9 176.2c9.7 5.1 21.9 11.6 31.4 16.6 9.2 4.9 15.7 11.6 15.7 22.1v30c0 18.5-20.8 39-37.2 30.4l1.2-8.6c-17.3-9-28.1-26.9-27.8-46.4l-4.9-29.4c0-8.7 13.9-18.8 21.6-14.7z"/><path class="st16" d="M114.8 181.8c9.7 5.1 21.9 11.6 31.4 16.6 9.2 4.9 15 14.5 15 25v30c0 18.5-19.6 30.4-36 21.9-17.3-9-28.1-26.9-27.8-46.4l.4-36.9c.1-8.7 9.3-14.2 17-10.2z"/></g><path id="Head" class="st38" d="M160 163.5c3.9 1.3 8 3.7 14.2 1.7 1.5-.5.1-6.8 4.3-8 5-1.4 11-7.3 11-16.3 0-14.5-2.3-19.9-5.2-23.8-6.2-8.5-19.1-10.4-28.7-7.4-3.3 1-9.1 2.2-13.3 12.1-6.2 14.7 9.6 24.4 7.2 31.5-2.7 7.7 7.5 9.1 10.5 10.2z"/><path id="collar" class="st24" d="M150.9 158.3c3.2 2.1 6 3.4 8 4.4 4.6 2.2 7.3 3 10.6 3.1 2.2.1 4.7-1 5.3-.8 1 .4 1.8.4 2.3 1.1.6.7-1.7 1.5-3.8 1.9-7.9 1.3-13.1-1.6-14.4-2.1-2.1-.8-3.9-2.1-8.4-4.8-1.1-.6-3-1.1-2.8-1.8.2-1 2.6-1 3.2-1z"/><path id="hair" d="M168.2 157.7c.2 2.4-19.8 1.5-19.4-.8 2.6-14.3-7.9-9.4-8.6-23.4-.1-2.3-.4-11.6 6.3-19.2 10.9-12.3 28.2-10.4 34.7-2.5 3 3.7 6.8 8 5.7 10.8-.4.9-.6 2.3-4.8 5.3-1.8 1.2-1.7 8.2-4.2 9.3-1.1.5-1.9-3.1-6.1-2-1.3.4-2.9 3.1-2.9 4.3-.1 4.3 2.7 5.1 2.6 6.5-.4 4.7-3.7 6.7-3.3 11.7z" fill="#1e1204"/><g class="st40"><path class="st41" d="M217.7 105l1.4-.9-.1 15.6-1.4.8z"/><path class="st42" d="M213.9 95.5l1.4-.8 6 3.5-1.4.8z"/><path fill="#8c1b46" d="M219.9 99l1.4-.8 3.6 18.8-1.4.8z"/><path class="st44" d="M229.2 111.5l1.4-.8-3.8 13.5-1.4.8z"/><path class="st41" d="M233.1 106.6l1.4-.8-.1 22.7-1.4.9z"/><path class="st42" d="M227.1 103.1l1.4-.8 6 3.5-1.4.8z"/><path class="st45" d="M233.1 106.6l-.1 22.8-3.9-2.3.1-15.6-3.8 13.5-4.1-2.4-3.6-17.6-.1 15.5-3.8-2.2.1-22.8 6 3.5 3.6 18.8 3.6-14.7z"/></g><g class="st40"><path class="st41" d="M238.6 123.6l1.4-.8v8.9l-1.4.9z"/><path class="st42" d="M238.6 119.8l1.4-.8 5.2 3-1.4.8z"/><path class="st41" d="M238.6 113.7l1.4-.8v6.1l-1.4.8zM250.1 132.8l1.5-.8-.1 6.4-1.4.8z"/><g class="st40"><defs><path id="SVGID_3_" class="st40" d="M247.5 122.5l-1.4.8c-.5.3-1.2.1-2.3-.5l1.4-.8c1.1.6 1.8.8 2.3.5z"/></defs><clipPath id="SVGID_4_"><use xlink:href="#SVGID_3_" overflow="visible"/></clipPath><g clip-path="url(#SVGID_4_)"><path class="st47" d="M243.8 122.8l1.4-.8c.1 0 .1.1.2.1l-1.4.8c-.1 0-.1-.1-.2-.1"/><path class="st48" d="M244 122.9l1.4-.8c.1 0 .2.1.2.1l-1.4.8s-.1 0-.2-.1"/><path class="st49" d="M244.2 123.1l1.4-.8c.1 0 .1.1.2.1l-1.4.8c0-.1-.1-.1-.2-.1"/><path class="st50" d="M244.5 123.2l1.4-.8c.1 0 .1.1.2.1l-1.4.8c-.1-.1-.2-.1-.2-.1"/><path class="st51" d="M244.7 123.2l1.4-.8c.1 0 .1 0 .2.1l-1.4.8c-.1 0-.2 0-.2-.1"/><path class="st52" d="M244.8 123.3l1.4-.8h.2l-1.4.8h-.2"/><path class="st53" d="M245 123.3l1.4-.8h.1l-1.4.8c0 .1-.1.1-.1 0"/><path class="st54" d="M245.1 123.4l1.4-.8h.1l-1.4.8h-.1"/><path class="st44" d="M245.2 123.4l1.4-.8h.1l-1.4.8h-.1"/><path class="st55" d="M245.4 123.4l1.4-.8h.1l-1.4.8h-.1"/><path class="st56" d="M245.5 123.4l1.4-.8h.1l-1.4.8c0 .1-.1.1-.1 0"/><path class="st57" d="M245.6 123.5l1.4-.8h.1l-1.4.8c0-.1-.1 0-.1 0"/><path class="st58" d="M245.7 123.4l1.4-.8h.1l-1.4.8h-.1"/><path class="st45" d="M245.8 123.4l1.4-.8h.1l-1.4.8h-.1"/><path class="st59" d="M246 123.4l1.4-.8c.1 0 .1 0 .1-.1l-1.4.8c0 .1-.1.1-.1.1"/></g></g><g class="st40"><defs><path id="SVGID_5_" class="st40" d="M247.7 126.9l1.4-.8c.9.8 1.5 1.7 1.9 2.6.4.9.6 2 .5 3.3l-1.4.8c0-1.3-.2-2.4-.5-3.3-.4-.9-1-1.7-1.9-2.6z"/></defs><clipPath id="SVGID_6_"><use xlink:href="#SVGID_5_" overflow="visible"/></clipPath><g clip-path="url(#SVGID_6_)"><path class="st61" d="M247.7 126.9l1.4-.8.1.1-1.5.7c.1.1.1.1 0 0"/><path class="st62" d="M247.8 127l1.4-.8.2.2-1.4.8-.2-.2"/><path class="st63" d="M248 127.2l1.4-.8.2.2-1.4.8-.2-.2"/><path class="st64" d="M248.2 127.4l1.4-.8.2.2-1.4.8c-.1 0-.1-.1-.2-.2"/><path class="st65" d="M248.4 127.6l1.4-.8c.1.1.1.1.1.2l-1.4.8c0-.1 0-.1-.1-.2"/><path class="st66" d="M248.6 127.8l1.4-.8c0 .1.1.1.1.2l-1.4.8c-.1-.1-.1-.1-.1-.2"/><path class="st67" d="M248.7 128l1.4-.8c0 .1.1.1.1.2l-1.4.8c0-.1-.1-.2-.1-.2"/><path class="st68" d="M248.8 128.2l1.4-.8c.1.1.1.2.2.2l-1.4.8c-.1-.1-.1-.2-.2-.2"/><path class="st69" d="M249 128.4l1.4-.8c.1.1.2.2.2.4l-1.4.8c0-.1-.1-.3-.2-.4"/><path class="st68" d="M249.2 128.8l1.4-.8c0 .1.1.1.1.2l-1.4.8c0-.1 0-.1-.1-.2"/><path class="st67" d="M249.4 129l1.4-.8s0 .1.1.1l-1.4.8c-.1 0-.1-.1-.1-.1"/><path class="st66" d="M249.4 129.1l1.4-.8s0 .1.1.1l-1.4.8-.1-.1"/><path class="st65" d="M249.5 129.3l1.4-.8s0 .1.1.1l-1.4.8-.1-.1"/><path class="st64" d="M249.5 129.4l1.4-.8s0 .1.1.1l-1.4.8s0-.1-.1-.1"/><path class="st63" d="M249.6 129.5l1.4-.8v.1l-1.4.8v-.1"/><path class="st62" d="M249.7 129.6l1.4-.8v.1l-1.4.8v-.1"/><path class="st61" d="M249.7 129.8l1.4-.8v.1l-1.4.8v-.1"/><path class="st70" d="M249.7 129.9l1.4-.8v.1l-1.4.8c.1 0 .1-.1 0-.1"/><path class="st71" d="M249.8 130l1.4-.8v.2l-1.4.8v-.2"/><path class="st72" d="M249.8 130.2l1.4-.8v.2l-1.4.8c.1-.1.1-.1 0-.2"/><path class="st42" d="M249.9 130.4l1.4-.8v.2l-1.4.8v-.2"/><path class="st73" d="M249.9 130.6l1.4-.8v.2l-1.4.8c.1-.1.1-.1 0-.2"/><path class="st74" d="M250 130.8l1.4-.8v.2l-1.4.8v-.2"/><path class="st47" d="M250 131l1.4-.8v.3l-1.4.8v-.3"/><path class="st48" d="M250.1 131.3l1.4-.8v.3l-1.4.8v-.3"/><path class="st49" d="M250.1 131.6l1.4-.8v.3l-1.4.8v-.3"/><path class="st50" d="M250.1 132l1.4-.8v.4l-1.4.8v-.4"/><path class="st51" d="M250.1 132.4l1.4-.8v.4l-1.4.8v-.4"/></g></g><path class="st42" d="M234.6 107.5l1.4-.8 10.1 5.8-1.5.8z"/><path class="st45" d="M247.7 126.9c.9.8 1.5 1.7 1.9 2.6.4.9.6 2 .5 3.3v6.4l-4.1-2.3V131c0-1.1-.2-2-.7-2.7a6.4 6.4 0 0 0-2.4-2.1l-4.4-2.5v8.9l-4-2.3.1-22.8 10.1 5.8a15 15 0 0 1 2.5 1.9 15 15 0 0 1 1.9 2.5c.5.9.9 1.8 1.2 2.8.3 1 .4 1.9.4 2.9 0 1.2-.3 2.2-.8 2.8-.5.7-1.2.9-2.2.7zm-1.6-3.6c.5-.3.7-.9.7-1.8s-.2-1.8-.7-2.6a5.6 5.6 0 0 0-2.2-2.1l-5.3-3.1v6.1l5.2 3c1.1.6 1.9.8 2.3.5"/><g class="st40"><defs><path id="SVGID_7_" class="st40" d="M250.8 125.9l-1.4.8c.2-.1.4-.3.6-.5.5-.7.8-1.6.8-2.8 0-.9-.1-1.9-.4-2.9-.3-1-.7-1.9-1.2-2.8-.5-.9-1.2-1.7-1.9-2.5a9.2 9.2 0 0 0-2.5-1.9l1.4-.8a15 15 0 0 1 2.5 1.9 15 15 0 0 1 1.9 2.5c.5.9.9 1.8 1.2 2.8.3 1 .4 1.9.4 2.9 0 1.2-.3 2.2-.8 2.8-.2.2-.4.4-.6.5z"/></defs><clipPath id="SVGID_8_"><use xlink:href="#SVGID_7_" overflow="visible"/></clipPath><g clip-path="url(#SVGID_8_)"><path class="st47" d="M244.6 113.3l1.4-.8h.1l-1.5.8c.1 0 .1 0 0 0"/><path class="st74" d="M244.7 113.3l1.4-.8c.1.1.2.1.3.2l-1.4.8s-.2-.1-.3-.2"/><path class="st73" d="M245.1 113.5l1.4-.8c.1.1.2.1.3.2l-1.4.8c-.1 0-.2-.1-.3-.2"/><path class="st42" d="M245.4 113.8l1.4-.8c.1.1.2.1.3.2l-1.4.8c-.1-.1-.2-.2-.3-.2"/><path class="st72" d="M245.7 114l1.4-.8c.1.1.2.2.3.2l-1.4.8c-.1-.1-.2-.1-.3-.2"/><path class="st71" d="M246 114.2l1.4-.8c.1.1.2.2.3.2l-1.4.8c-.1 0-.2-.1-.3-.2"/><path class="st70" d="M246.3 114.5l1.4-.8c.1.1.2.2.3.2l-1.4.8c-.1-.1-.2-.2-.3-.2"/><path class="st61" d="M246.6 114.7l1.4-.8c.1.1.2.2.3.2l-1.4.8c-.1 0-.2-.1-.3-.2"/><path class="st62" d="M246.9 115l1.4-.8.2.2-1.4.8-.2-.2"/><path class="st63" d="M247.1 115.2l1.4-.8.2.2-1.4.8-.2-.2"/><path class="st64" d="M247.4 115.4l1.4-.8.3.3-1.4.8c-.2-.1-.3-.2-.3-.3"/><path class="st65" d="M247.6 115.7l1.4-.8c.1.1.2.2.2.3l-1.4.8c0-.1-.1-.2-.2-.3"/><path class="st66" d="M247.9 116l1.4-.8c.1.1.2.2.2.3l-1.4.8c-.1-.1-.2-.2-.2-.3"/><path class="st67" d="M248.1 116.3l1.4-.8c.1.1.2.2.2.3l-1.4.8c0-.1-.1-.2-.2-.3"/><path class="st68" d="M248.3 116.6l1.4-.8c.1.1.2.3.3.4l-1.4.8c0-.1-.2-.2-.3-.4"/><path class="st69" d="M248.7 117.1l1.4-.8c.1.2.3.4.4.6 0 0 0 .1.1.1l-1.4.8s0-.1-.1-.1c-.2-.2-.3-.4-.4-.6"/><path class="st68" d="M249.1 117.8l1.4-.8c.1.1.2.3.2.4l-1.4.8c0-.1-.1-.2-.2-.4"/><path class="st67" d="M249.4 118.2l1.4-.8c.1.1.1.2.2.3l-1.4.8c-.1-.1-.2-.2-.2-.3"/><path class="st66" d="M249.5 118.5l1.4-.8c0 .1.1.2.1.3l-1.4.8c0-.1 0-.2-.1-.3"/><path class="st65" d="M249.6 118.8l1.4-.8c0 .1.1.2.1.2l-1.4.8s0-.1-.1-.2"/><path class="st64" d="M249.8 119l1.4-.8c0 .1.1.2.1.2l-1.4.8c-.1 0-.1-.1-.1-.2"/><path class="st63" d="M249.9 119.3l1.4-.8c0 .1.1.2.1.2l-1.4.8c-.1 0-.1-.1-.1-.2"/><path class="st62" d="M250 119.5l1.4-.8c0 .1.1.2.1.3l-1.4.8c-.1-.1-.1-.2-.1-.3"/><path class="st61" d="M250.1 119.8l1.4-.8c0 .1.1.2.1.3l-1.4.8c-.1-.1-.1-.2-.1-.3"/><path class="st70" d="M250.1 120.1l1.4-.8c0 .1.1.2.1.3l-1.4.8c0-.1 0-.2-.1-.3"/><path class="st71" d="M250.2 120.4l1.4-.8v.2l-1.4.8v-.1c.1-.1.1-.1 0-.1"/><path class="st72" d="M250.3 120.6l1.4-.8c0 .1.1.2.1.3l-1.4.8c0-.1 0-.2-.1-.3"/><path class="st42" d="M250.4 120.9l1.4-.8c0 .1 0 .2.1.3l-1.4.8s-.1-.1-.1-.3"/><path class="st73" d="M250.5 121.3l1.4-.8c0 .1 0 .2.1.3l-1.4.8c-.1-.1-.1-.2-.1-.3"/><path class="st74" d="M250.5 121.6l1.4-.8c0 .1 0 .2.1.3l-1.4.8c0-.1 0-.2-.1-.3"/><path class="st47" d="M250.6 121.9l1.4-.8v.3l-1.4.8v-.3"/><path class="st48" d="M250.6 122.2l1.4-.8v.3l-1.4.8c.1-.1 0-.2 0-.3"/><path class="st49" d="M250.7 122.5l1.4-.8v.3l-1.4.8v-.3"/><path class="st50" d="M250.7 122.8l1.4-.8v.3l-1.4.8v-.3"/><path class="st51" d="M250.7 123.1l1.4-.8v.3l-1.4.8v-.3"/><path class="st52" d="M250.7 123.4l1.4-.8v.3l-1.4.8v-.3"/><path class="st53" d="M250.7 123.7l1.4-.8v.3l-1.4.8v-.3"/><path class="st54" d="M250.7 124l1.4-.8v.3l-1.4.8v-.3"/><path class="st44" d="M250.7 124.3l1.4-.8v.3l-1.4.8c-.1-.1-.1-.2 0-.3"/><path class="st55" d="M250.6 124.5l1.4-.8c0 .1 0 .2-.1.3l-1.4.8c.1-.1.1-.2.1-.3"/><path class="st56" d="M250.6 124.8l1.4-.8c0 .1 0 .2-.1.3l-1.4.8c0-.1 0-.2.1-.3"/><path class="st57" d="M250.5 125.1l1.4-.8c0 .1-.1.2-.1.3l-1.4.8c0-.1.1-.2.1-.3"/><path class="st58" d="M250.4 125.4l1.4-.8c0 .1-.1.2-.1.3l-1.4.8c0-.1.1-.2.1-.3"/><path class="st45" d="M250.3 125.6l1.4-.8c-.1.1-.1.2-.2.3l-1.4.8c.1 0 .1-.1.2-.3"/><path class="st59" d="M250.1 126l1.4-.8c0 .1-.1.1-.2.2-.2.2-.4.4-.6.5l-1.4.8c.2-.1.4-.3.6-.5l.2-.2"/></g></g></g><path class="st2" d="M279.6 351.3l3.9 1.5 46.5-28.5-3.8-.9zM133.4 354.1l3.6.7 21.5-13.1-2.8-1.5zM180.6 353.6l2.7.5 4.8-3.6-2.3-.6zM181.6 324.6l2.3.7-16.5 9.9-1.7-1z"/><path d="M306.6 322.2c.4 0 15.4-5.5 15.4-5.5l4.2 2.2-19.5 11.9-.1-8.6z" fill="#999"/></svg>