<svg id="Layer_1" xmlns="http://www.w3.org/2000/svg" viewBox="0 0 86.8 57.1"><style>.st0{fill:#cccbfb}.st1{fill:#b23636}.st2{fill:#ee4540}.st3{fill:#008c53}.st4{fill:#074}.st5{fill:#00a266}.st6{fill:#ccc}.st7{fill:#e2e2e2}</style><path class="st0" d="M86.8 37.6L63.9 24.1 51.5 56.9l1.5.2 25.6-14.7M18.3 48.1l1.8-.3 1.1-.3 1.1-.6 2.1-1.4 1.6-.9 1-1.4v-.8l-5.7-4.1-4.1 3.5z"/><path class="st0" d="M72.2 53.5l1.8-.2 1.1-.4 1.2-.6 2-1.4 1.6-.9 1-1.4.3-1.3-.4-1.5-1-1.1-1.4-.9-1.5-.6-1.7.6-4.1 3.4zM70.3 31.1l1.8-.3 1.1-.3 1.1-.6 2.1-1.4 1.6-.9 1-1.4.3-1.3-.4-1.6-1-1-1.4-.9-1.5-.6-1.7.5-4.1 3.5zM48.3 17.4l1.8-.2 1.1-.4 1.1-.5 2.1-1.5 1.6-.9 1-1.4.3-1.2-.4-1.6-1-1.1-1.4-.8-1.5-.7-1.7.6-4.1 3.4z"/><g id="Stack_2_"><g id="Coin_14_"><path class="st1" d="M74.7 26.8c0 1.7-2.4 3-5.4 3s-5.4-1.3-5.4-3c0-.5-.2-1.1.2-1.5.9-1 3.1-1.5 5.1-1.5 2 0 4.1.4 5 1.3.6.5.5 1.2.5 1.7z"/><ellipse class="st2" cx="69.3" cy="26" rx="5.4" ry="3"/></g><g id="Coin_13_"><path class="st1" d="M75 25.4c0 1.7-2.4 3-5.4 3s-5.4-1.3-5.4-3c0-.5-.2-1.1.2-1.5.9-1 3.1-1.5 5.1-1.5 2 0 4.1.4 5 1.3.6.5.5 1.2.5 1.7z"/><ellipse class="st2" cx="69.6" cy="24.6" rx="5.4" ry="3"/></g><g id="Coin_12_"><path class="st1" d="M74.1 24.1c0 1.7-2.4 3-5.4 3s-5.4-1.3-5.4-3c0-.5-.2-1.1.2-1.5.9-1 3.1-1.5 5.1-1.5 2 0 4.1.4 5 1.3.6.5.5 1.2.5 1.7z"/><ellipse class="st2" cx="68.7" cy="23.3" rx="5.4" ry="3"/></g><g id="Coin_11_"><path class="st1" d="M75.4 23.1c0 1.7-2.4 3-5.4 3s-5.4-1.3-5.4-3c0-.5-.2-1.1.2-1.5.9-1 3.1-1.5 5.1-1.5 2 0 4.1.4 5 1.3.6.5.5 1.2.5 1.7z"/><ellipse class="st2" cx="70" cy="22.3" rx="5.4" ry="3"/></g><g id="Coin_10_"><path class="st1" d="M74.6 21.7c0 1.7-2.4 3-5.4 3s-5.4-1.3-5.4-3c0-.5-.2-1.1.2-1.5.9-1 3.1-1.5 5.1-1.5 2 0 4.1.4 5 1.3.6.4.5 1.1.5 1.7z"/><ellipse class="st2" cx="69.3" cy="20.8" rx="5.4" ry="3"/></g></g><g id="Stack_3_"><g id="Coin_19_"><path class="st1" d="M53.1 13.6c0 1.7-2.4 3-5.4 3s-5.4-1.3-5.4-3c0-.5-.2-1.1.2-1.5.9-1 3.1-1.5 5.1-1.5 2 0 4.1.4 5 1.3.6.4.5 1.1.5 1.7z"/><ellipse class="st2" cx="47.7" cy="12.7" rx="5.4" ry="3"/></g><g id="Coin_18_"><path class="st1" d="M53.4 12.2c0 1.7-2.4 3-5.4 3s-5.4-1.3-5.4-3c0-.5-.2-1.1.2-1.5.9-1 3.1-1.5 5.1-1.5 2 0 4.1.4 5 1.3.6.4.5 1.1.5 1.7z"/><ellipse class="st2" cx="48" cy="11.3" rx="5.4" ry="3"/></g><g id="Coin_17_"><path class="st1" d="M52.4 10.9c0 1.7-2.4 3-5.4 3s-5.4-1.3-5.4-3c0-.5-.2-1.1.2-1.5.9-1 3.1-1.5 5.1-1.5 2 0 4.1.4 5 1.3.7.4.5 1.1.5 1.7z"/><ellipse class="st2" cx="47.1" cy="10" rx="5.4" ry="3"/></g><g id="Coin_16_"><path class="st1" d="M53.8 9.9c0 1.7-2.4 3-5.4 3s-5.4-1.3-5.4-3c0-.5-.2-1.1.2-1.5.9-1 3.1-1.5 5.1-1.5 2 0 4.1.4 5 1.3.6.4.5 1.1.5 1.7z"/><ellipse class="st2" cx="48.4" cy="9" rx="5.4" ry="3"/></g><g id="Coin_15_"><path class="st1" d="M53 8.4c0 1.7-2.4 3-5.4 3s-5.4-1.3-5.4-3c0-.5-.2-1.1.2-1.5.9-1 3.1-1.5 5.1-1.5 2 0 4.1.4 5 1.3.6.5.5 1.2.5 1.7z"/><ellipse class="st2" cx="47.6" cy="7.6" rx="5.4" ry="3"/></g></g><g id="Money_1_"><path class="st3" d="M0 24.6v2.5l51.5 29.8v-2.5z"/><path class="st4" d="M77.3 39.5V42L51.5 56.9v-2.5z"/><path class="st5" d="M25.6 9.6L0 24.6l51.5 29.8 25.8-14.9z"/><path class="st6" d="M21.5 39.6l7.4 4.2v-2.5l-7.6-4.4z"/><path class="st7" d="M21.3 36.9l26.6-14.4 7.3 4.2-26.3 14.6z"/></g><g id="Money_3_"><path class="st3" d="M1.4 22v2.5l51.5 29.8v-2.5z"/><path class="st4" d="M78.6 36.9v2.5L52.9 54.3v-2.5z"/><path class="st5" d="M27 7L1.4 22l51.5 29.8 25.7-14.9z"/><path class="st6" d="M22.9 37l7.4 4.2v-2.5l-7.6-4.4z"/><path class="st7" d="M22.7 34.3l26.6-14.4 7.2 4.2-26.2 14.6z"/></g><g id="Money_2_"><path class="st3" d="M.1 18.1v2.5l51.6 29.8v-2.5z"/><path class="st4" d="M77.4 33v2.5L51.7 50.4v-2.5z"/><path class="st5" d="M25.8 3.1L.1 18.1l51.6 29.8L77.4 33z"/><path class="st6" d="M21.6 33.1l7.4 4.2v-2.5l-7.6-4.4z"/><path class="st7" d="M21.4 30.4L48 16l7.3 4.2L29 34.8z"/></g><g id="Money"><path class="st3" d="M2 15v2.5l51.5 29.8v-2.5z"/><path class="st4" d="M79.3 29.9v2.5L53.5 47.3v-2.5z"/><path class="st5" d="M27.6 0L2 15l51.5 29.8 25.8-14.9z"/><path class="st6" d="M23.5 30l7.4 4.2v-2.5l-7.6-4.4z"/><path class="st7" d="M23.3 27.3l26.6-14.4 7.3 4.2-26.3 14.6z"/></g><path fill="#006b3a" d="M51.7 50.4l1 .4 24.8-14.5-.9-.5z"/><g id="Stack"><g id="Coin"><path class="st1" d="M22.3 45.5c0 1.7-2.4 3-5.4 3s-5.4-1.3-5.4-3c0-.5-.2-1.1.2-1.5.9-1 3.1-1.5 5.1-1.5 2 0 4.1.4 5 1.3.7.4.5 1.1.5 1.7z"/><ellipse class="st2" cx="17" cy="44.6" rx="5.4" ry="3"/></g><g id="Coin_1_"><path class="st1" d="M22.7 44.1c0 1.7-2.4 3-5.4 3s-5.4-1.3-5.4-3c0-.5-.2-1.1.2-1.5.9-1 3.1-1.5 5.1-1.5 2 0 4.1.4 5 1.3.6.4.5 1.1.5 1.7z"/><ellipse class="st2" cx="17.3" cy="43.3" rx="5.4" ry="3"/></g><g id="Coin_2_"><path class="st1" d="M21.7 42.8c0 1.7-2.4 3-5.4 3s-5.4-1.3-5.4-3c0-.5-.2-1.1.2-1.5.9-1 3.1-1.5 5.1-1.5 2 0 4.1.4 5 1.3.6.4.5 1.1.5 1.7z"/><ellipse class="st2" cx="16.3" cy="41.9" rx="5.4" ry="3"/></g><g id="Coin_3_"><path class="st1" d="M23 41.8c0 1.7-2.4 3-5.4 3s-5.4-1.3-5.4-3c0-.5-.2-1.1.2-1.5.9-1 3.1-1.5 5.1-1.5 2 0 4.1.4 5 1.3.7.4.5 1.1.5 1.7z"/><ellipse class="st2" cx="17.7" cy="40.9" rx="5.4" ry="3"/></g><g id="Coin_4_"><path class="st1" d="M22.3 40.3c0 1.7-2.4 3-5.4 3s-5.4-1.3-5.4-3c0-.5-.2-1.1.2-1.5.9-1 3.1-1.5 5.1-1.5 2 0 4.1.4 5 1.3.6.5.5 1.2.5 1.7z"/><ellipse class="st2" cx="16.9" cy="39.5" rx="5.4" ry="3"/></g></g><g id="Stack_1_"><g id="Coin_9_"><path class="st1" d="M76.2 50.8c0 1.7-2.4 3-5.4 3s-5.4-1.3-5.4-3c0-.5-.2-1.1.2-1.5.9-1 3.1-1.5 5.1-1.5 2 0 4.1.4 5 1.3.6.5.5 1.2.5 1.7z"/><ellipse class="st2" cx="70.8" cy="50" rx="5.4" ry="3"/></g><g id="Coin_8_"><path class="st1" d="M76.5 49.5c0 1.7-2.4 3-5.4 3s-5.4-1.3-5.4-3c0-.5-.2-1.1.2-1.5.9-1 3.1-1.5 5.1-1.5 2 0 4.1.4 5 1.3.7.4.5 1.1.5 1.7z"/><ellipse class="st2" cx="71.2" cy="48.6" rx="5.4" ry="3"/></g><g id="Coin_7_"><path class="st1" d="M75.6 48.2c0 1.7-2.4 3-5.4 3s-5.4-1.3-5.4-3c0-.5-.2-1.1.2-1.5.9-1 3.1-1.5 5.1-1.5 2 0 4.1.4 5 1.3.6.4.5 1.1.5 1.7z"/><ellipse class="st2" cx="70.2" cy="47.3" rx="5.4" ry="3"/></g><g id="Coin_6_"><path class="st1" d="M76.9 47.2c0 1.7-2.4 3-5.4 3s-5.4-1.3-5.4-3c0-.5-.2-1.1.2-1.5.9-1 3.1-1.5 5.1-1.5 2 0 4.1.4 5 1.3.6.4.5 1.1.5 1.7z"/><ellipse class="st2" cx="71.5" cy="46.3" rx="5.4" ry="3"/></g><g id="Coin_5_"><path class="st1" d="M76.2 45.7c0 1.7-2.4 3-5.4 3s-5.4-1.3-5.4-3c0-.5-.2-1.1.2-1.5.9-1 3.1-1.5 5.1-1.5 2 0 4.1.4 5 1.3.6.5.5 1.2.5 1.7z"/><ellipse class="st2" cx="70.8" cy="44.9" rx="5.4" ry="3"/></g></g></svg>