<svg id="Layer_1" xmlns="http://www.w3.org/2000/svg" viewBox="0 0 244.5 151.1"><style>.st0{fill:#cccbfb}.st1{enable-background:new}.st2{fill:#007d4f}.st3{fill:#008c58}.st4{fill:#005737}</style><path class="st0" d="M145 100.1l37.3-17.2L210 67.1l-23.7-16.2zM190.3 49.4l54.2-32.5-7.7-5-50.3 34.2z"/><g class="st1"><path class="st2" d="M172.8 48.2l68.6-39.9v8.3l-68.7 39.9z"/><path class="st3" d="M158.4 39.9L227 0l14.4 8.3-68.6 39.9z"/><path class="st4" d="M172.8 48.2l-.1 8.3-14.3-8.3v-8.3z"/></g><g class="st1"><path class="st2" d="M182.2 69.9l24-14V67l-24 14z"/><path class="st3" d="M126.5 37.7l24-14 55.7 32.2-24 14z"/><path class="st4" d="M182.2 69.9V81l-55.8-32.2.1-11.1z"/></g><g class="st1"><path fill="#754dc2" d="M159.2 82.4l22.2-12.9v9.9l-22.2 12.9z"/><path fill="#8356d8" d="M105.8 51.6L128 38.7l53.4 30.8-22.2 12.9z"/><path fill="#523687" d="M159.2 82.4v9.9l-53.4-30.8v-9.9z"/></g><g class="st1"><path fill="#b83531" d="M145.2 90.4l22.2-12.9v9.9l-22.2 12.9z"/><path fill="#cd3b37" d="M91.8 59.6L114 46.7l53.4 30.8-22.2 12.9z"/><path fill="#802522" d="M145.2 90.4v9.9L91.8 69.5v-9.9z"/></g><path fill="#ee4540" d="M92 69.1l-92 49 47 33 98-51z"/></svg>