<svg id="Layer_1" xmlns="http://www.w3.org/2000/svg" viewBox="0 0 74.8 51.8"><style>.st1{fill:#714ec6}</style><path d="M70.1 35.9c2.9 1.7 4.7 4 4.7 6.6 0 5.1-7.1 9.3-15.9 9.3h-37l-.1-21.4c0-5.1 7.1-9.3 15.9-9.3 4.4 0 8.4 1 11.3 2.7 2.9 1.7 4.7 4 4.7 6.6v2.9h5c4.5-.1 8.5.9 11.4 2.6z" fill="#b0afd8"/><path class="st1" d="M25.9 22.1c-2.3 2.3-10.7 1.3-16.7-4.8S.1 4.5 2.4 2.2s9.4-4.1 15.5 2 10.3 15.6 8 17.9z"/><path class="st1" d="M46 31.3c0 5-5.9 14.6-12 8.5S21.1 14 23.5 11.6s9.4-2.5 15.5 3.6 7 11.3 7 16.1z"/><path d="M32.5 14.3c2.9 1.7 5.8 4.6 8 8.5 4.4 7.6 4.4 15.9-.1 18.4l-2.5 1.4-16.1 9.2-18.5-32c-4.4-7.7-4.4-15.9 0-18.5 2.2-1.3 5.1-.9 8 .8 2.9 1.7 5.8 4.6 8 8.5l2.5 4.3 2.5-1.4c2.3-1.3 5.2-.9 8.2.8z" fill="#9864fb"/></svg>