<svg id="Layer_1" xmlns="http://www.w3.org/2000/svg" viewBox="0 0 46 51.8"><style>.st0{fill:#714ec6}</style><path class="st0" d="M25.9 22.1c-2.3 2.3-10.7 1.3-16.7-4.8S.1 4.5 2.4 2.2s9.4-4.1 15.5 2 10.3 15.6 8 17.9z"/><path class="st0" d="M46 31.3c0 5-5.9 14.6-12 8.5-6-6.1-12.9-25.8-10.5-28.2s9.4-2.5 15.5 3.6 7 11.3 7 16.1z"/><path d="M32.5 14.3c2.9 1.7 5.8 4.6 8 8.5 4.4 7.6 4.4 15.9-.1 18.4l-2.5 1.4-16.1 9.2-18.5-32c-4.4-7.7-4.4-15.9 0-18.5 2.2-1.3 5.1-.9 8 .8 2.9 1.7 5.8 4.6 8 8.5l2.5 4.3 2.5-1.4c2.3-1.3 5.2-.9 8.2.8z" fill="#9864fb"/></svg>