<svg id="Layer_1" xmlns="http://www.w3.org/2000/svg" xmlns:xlink="http://www.w3.org/1999/xlink" viewBox="0 0 137.5 93.5"><style>.st0{fill:#cccbfb}.st1{fill:#1b1b1b}.st2{fill:#3f3f3f}.st4{fill:#303030}.st5{fill:#fff}.st6{fill:#a3a3a3}.st7{fill:#00a266}.st8{fill:#9864fb}.st9{fill:#ee4540}.st10{enable-background:new}.st12{fill:#5b5b5b}.st13{fill:#5f5f5f}.st14{fill:#626262}.st15{fill:#666}.st16{fill:#696969}.st17{fill:#6d6d6d}.st18{fill:#707070}.st19{fill:#747474}.st20{fill:#777}.st21{fill:#7a7a7a}.st22{fill:#7e7e7e}.st23{fill:#828282}.st24{fill:#858585}.st25{fill:#898989}.st26{fill:#8c8c8c}.st29{fill:#909090}.st30{fill:#939393}.st31{fill:#979797}.st32{fill:#9a9a9a}.st33{fill:#9e9e9e}.st34{fill:#a1a1a1}.st35{fill:#a4a4a4}.st36{fill:#a8a8a8}.st37{fill:#ababab}.st38{fill:#afafaf}.st39{fill:#b9b9b9}.st40{fill:#bdbdbd}.st41{fill:silver}.st42{fill:#c2c2c2}.st46{fill:#424242}.st47{fill:#444}.st48{fill:#474747}.st49{fill:#494949}.st50{fill:#4c4c4c}.st51{fill:#4e4e4e}.st52{fill:#515151}.st53{fill:#535353}.st54{fill:#555}.st55{fill:#585858}.st56{fill:#5a5a5a}.st57{fill:#5d5d5d}.st59{fill:#646464}.st60{fill:#6b6b6b}.st61{fill:#6e6e6e}.st62{fill:#737373}.st63{fill:#757575}.st64{fill:#787878}.st65{fill:#8a8a8a}.st66{fill:#919191}.st67{fill:#969696}</style><path class="st0" d="M93.3 93.1l15.7-9-9.7-5.7-14 8.2zM68.8 69.5l3-1.7-7.7-4.3-2.4 1.8zM93.3 80.4l44.2-27-69.7-40.5-37 30.2z"/><path class="st0" d="M43.7 64L68 49.2 25.5 23.9 5.1 42.2z"/><g id="Monitor_1_"><g id="Base"><path class="st1" d="M76.1 73.7l-12.6 5.9 1 2.3 11.6-6.6z"/><path class="st2" d="M42 67.5v1.6l22.5 12.8v-3.7z"/><path fill="#383838" d="M53.7 60.8L42 67.5l22.5 12.8 11.6-6.6z"/></g><path class="st1" d="M63.6 71.4L68 69l-8-4.8-2.5 2.7z"/><g id="Stand"><path class="st1" d="M58.3 60l2.1 13.3 3.2-1.9.2-13.6z"/><path class="st1" d="M58.2 56.2L56 57.3l4.4 2.3 2.1-1.1z"/><path class="st4" d="M54.1 56.3v13.5l6.3 3.5V59.6z"/></g><g id="Monitor"><path class="st1" d="M90.5 37.7l.8 41.7 3.2-2 .2-42z"/><path class="st1" d="M32.5 0l-3.4 2L91 38.3l3.7-2.9z"/><path class="st4" d="M29.1 2l.3 42.1 61.9 35.3v-42z"/><path class="st5" d="M30.5 4.4l.3 38.7 58.9 33.8V38.3z"/><g id="Screen_1_"><path class="st6" d="M30.5 4.3l.1 4L89.7 42v-3.7zM30.6 10.6l.1 16.2 59 33.6V44.5z"/><path class="st7" d="M30.7 28.4l-.1 14.8 18.9 10.7V39.4z"/><path class="st8" d="M70.8 51.4v14.7L89.7 77V62.4z"/><path class="st9" d="M50.8 39.9v14.7l18.9 10.8V50.9z"/></g></g></g><g id="Tablet"><path class="st1" d="M41.8 38.1l.8 26.4 1.1-.5.1-26.2z"/><path class="st1" d="M4.9 15.4l-1.1.8 38.5 22.5 1.5-.9z"/><path class="st4" d="M3.8 16.2l.1 26.3 38.7 22V38.3z"/><path class="st5" d="M4.8 17.9l.3 24.3 36.6 20.9-.2-24.2z"/><g id="Screen_2_"><path class="st6" d="M4.7 17.8v2.4l36.9 21.2-.1-2.5zM4.8 21.8l.1 10 36.7 21v-9.9z"/><path class="st7" d="M4.9 32.9l.2 9.3L22 51.9v-9.1z"/><path class="st8" d="M22.9 43.2v9.2l18.8 10.7-.1-9.1z"/></g></g><g id="Phone"><path class="st1" d="M92.3 72.5l.2 21 .8-.4V72z"/><path class="st1" d="M85.2 67.5l-.8.5 8.1 4.5.8-.5z"/><path class="st4" d="M84.4 68v21l8.1 4.5v-21z"/><path class="st5" d="M84.8 70.2v17.1l7.3 4v-17z"/><g class="st10"><g class="st10"><defs><path id="SVGID_1_" class="st10" d="M87.6 89.6c.2-.1.3-.1.4 0l-.1.1c-.1-.2-.2-.2-.3-.1z"/></defs><clipPath id="SVGID_2_"><use xlink:href="#SVGID_1_" overflow="visible"/></clipPath><g clip-path="url(#SVGID_2_)"><path class="st12" d="M87.6 89.6l.1-.1-.1.1"/><path class="st13" d="M87.7 89.6l.1-.1-.1.1"/><path class="st14" d="M87.7 89.6l.1-.1-.1.1"/><path class="st15" d="M87.7 89.6l.1-.1-.1.1"/><path class="st16" d="M87.7 89.6l.1-.1-.1.1"/><path class="st17" d="M87.8 89.6l.1-.1-.1.1"/><path class="st18" d="M87.8 89.6c.1-.1.1-.1.1 0h-.1"/><path class="st19" d="M87.8 89.6c.1-.1.1-.1.1 0h-.1"/><path class="st20" d="M87.8 89.6c.1-.1.1 0 .1 0h-.1"/><path class="st21" d="M87.8 89.6c.1-.1.1 0 .1 0h-.1"/><path class="st22" d="M87.8 89.6c.1-.1.1 0 .1 0h-.1c.1 0 .1 0 0 0"/><path class="st23" d="M87.9 89.6c.1-.1.1 0 .1 0h-.1"/><path class="st24" d="M87.9 89.6c.1-.1.1 0 .1 0h-.1"/><path class="st25" d="M87.9 89.6h.1-.1"/><path class="st26" d="M87.9 89.6c.1-.1.1 0 .1 0h-.1"/></g></g><g class="st10"><defs><path id="SVGID_3_" class="st10" d="M88.3 90.6v-.2l.1-.1c.1.2 0 .3-.1.3z"/></defs><clipPath id="SVGID_4_"><use xlink:href="#SVGID_3_" overflow="visible"/></clipPath><g clip-path="url(#SVGID_4_)"><path class="st22" d="M88.4 90.4l.1-.1-.1.1"/><path class="st21" d="M88.4 90.4c.1-.1.1-.1 0 0"/><path class="st20" d="M88.4 90.4c.1 0 .1 0 0 0"/><path class="st19" d="M88.4 90.4c.1 0 .1 0 0 0"/><path class="st18" d="M88.4 90.4c.1 0 .1 0 0 0 0 .1 0 0 0 0"/><path class="st17" d="M88.4 90.5c.1-.1.1-.1 0 0"/><path class="st16" d="M88.4 90.5c.1-.1.1-.1 0 0"/><path class="st15" d="M88.4 90.5c.1 0 0 0 0 0"/><path class="st14" d="M88.4 90.5c-.1 0 0 0 0 0"/><path class="st13" d="M88.3 90.6c.1-.1.1-.1 0 0"/><path class="st12" d="M88.3 90.6c.1 0 .1 0 0 0"/></g></g><g class="st10"><defs><path id="SVGID_5_" class="st10" d="M87.9 89.6c.3.1.5.4.5.7l-.1.1c.1-.3-.1-.6-.4-.8z"/></defs><clipPath id="SVGID_6_"><use xlink:href="#SVGID_5_" overflow="visible"/></clipPath><g clip-path="url(#SVGID_6_)"><path class="st26" d="M87.9 89.6h.1-.1"/><path class="st29" d="M87.9 89.6h.1-.1c.1 0 0 0 0 0"/><path class="st30" d="M88 89.6h.1-.1"/><path class="st31" d="M88 89.6h.1-.1"/><path class="st32" d="M88 89.7h.1-.1"/><path class="st33" d="M88 89.7h.1-.1"/><path class="st34" d="M88 89.7h.1-.1c.1 0 0 0 0 0"/><path class="st35" d="M88.1 89.7h.1-.1"/><path class="st36" d="M88.1 89.7h.1-.1"/><path class="st37" d="M88.1 89.7h.1-.1c0 .1 0 0 0 0"/><path class="st38" d="M88.1 89.8h.1-.1"/><path class="st39" d="M88.1 89.8h.1-.1"/><path class="st40" d="M88.1 89.8h.1-.1c.1 0 .1 0 0 0"/><path class="st41" d="M88.2 89.8h.1-.1"/><path class="st42" d="M88.2 89.8h.1-.1c0 .1 0 .1 0 0"/><path d="M88.2 89.9h.1-.1" fill="#c4c4c4"/><path class="st42" d="M88.2 89.9h.1-.1c.1.1.1.1 0 0"/><path class="st41" d="M88.3 90h.1-.1"/><path class="st40" d="M88.3 90h.1-.1"/><path class="st39" d="M88.3 90h.1-.1"/><path class="st38" d="M88.3 90c.1 0 .1 0 0 0 0 .1 0 .1 0 0"/><path class="st37" d="M88.3 90.1c.1-.1.1-.1 0 0"/><path class="st36" d="M88.3 90.1c.1-.1.1 0 0 0"/><path class="st35" d="M88.3 90.1c.1 0 .1 0 0 0"/><path class="st34" d="M88.3 90.1c.1 0 .1 0 0 0"/><path class="st33" d="M88.3 90.2c.1-.1.1-.1 0 0"/><path class="st32" d="M88.4 90.2c0-.1 0-.1 0 0"/><path class="st31" d="M88.4 90.2c.1 0 .1 0 0 0"/><path class="st30" d="M88.4 90.2c.1 0 .1 0 0 0"/><path class="st29" d="M88.4 90.2c.1 0 .1 0 0 0 0 .1 0 .1 0 0"/><path class="st26" d="M88.4 90.3c.1-.1.1-.1 0 0"/><path class="st25" d="M88.4 90.3c.1-.1.1 0 0 0"/><path class="st24" d="M88.4 90.3c.1 0 .1 0 0 0"/><path class="st23" d="M88.4 90.3c.1 0 .1 0 0 0"/><path class="st22" d="M88.4 90.4c.1-.1.1-.1 0 0"/></g></g><path d="M87.9 89.6c.2.1.4.5.4.8 0 .3-.2.4-.4.3-.2-.1-.4-.5-.4-.8 0-.3.2-.4.4-.3z" fill="#5e5e5e"/></g><g class="st10"><g class="st10"><defs><path id="SVGID_7_" class="st10" d="M86.9 70.5c.1-.1.7.2 1.3.6h-.1c-.6-.3-1.1-.6-1.2-.6z"/></defs><clipPath id="SVGID_8_"><use xlink:href="#SVGID_7_" overflow="visible"/></clipPath><g clip-path="url(#SVGID_8_)"><path class="st2" d="M86.9 70.5h.1-.1"/><path class="st46" d="M86.9 70.5h.1-.1"/><path class="st47" d="M86.9 70.5h.1-.1"/><path class="st48" d="M86.9 70.5h.1-.1"/><path class="st49" d="M86.9 70.5h.1-.1"/><path class="st50" d="M86.9 70.5h.1-.1"/><path class="st51" d="M87 70.5"/><path class="st52" d="M87 70.5"/><path class="st53" d="M87 70.6c.1-.1.1-.1 0 0"/><path class="st54" d="M87 70.6h.1-.1"/><path class="st55" d="M87 70.6h.1-.1c.1 0 0 0 0 0"/><path class="st56" d="M87.1 70.6h.2-.2"/><path class="st57" d="M87.2 70.6h.3-.1c-.1.1-.2 0-.2 0"/><path class="st13" d="M87.3 70.7c.2 0 .3.1.5.2h-.1c-.1-.1-.2-.1-.4-.2"/><path class="st14" d="M87.7 70.9c.2 0 .4.1.5.2h-.1c-.1 0-.2-.1-.4-.2"/></g></g><g class="st10"><defs><path id="SVGID_9_" class="st10" d="M88.2 71.2c.8.4 1.4.8 1.4.8h-.1s-.6-.4-1.3-.8z"/></defs><clipPath id="SVGID_10_"><use xlink:href="#SVGID_9_" overflow="visible"/></clipPath><g clip-path="url(#SVGID_10_)"><path class="st14" d="M88.2 71.2h.2-.1-.1"/><path class="st59" d="M88.4 71.3c.3.1.5.2.6.3h-.1c-.2-.1-.3-.2-.5-.3"/><path class="st15" d="M88.9 71.6c.2 0 .3.1.4.1h-.1c-.1 0-.2 0-.3-.1"/><path class="st16" d="M89.2 71.8c.1 0 .2 0 .2.1h-.1c0-.1-.1-.1-.1-.1"/><path class="st60" d="M89.3 71.9h.1-.1c.1 0 0 0 0 0"/><path class="st61" d="M89.4 71.9h.1-.1"/><path class="st18" d="M89.4 72c.1-.1.1-.1 0 0"/><path class="st62" d="M89.4 72c.1-.1.1-.1 0 0"/><path class="st63" d="M89.4 72l.1-.1v.1h-.1"/><path class="st64" d="M89.5 72v-.1.1"/><path class="st21" d="M89.5 72"/><path class="st65" d="M89.5 72"/><path class="st66" d="M89.5 72"/><path class="st67" d="M89.5 72h.1-.1"/><path class="st32" d="M89.5 72h.1-.1"/><path class="st67" d="M89.5 72h.1-.1"/><path class="st66" d="M89.5 72h.1-.1"/><path class="st65" d="M89.5 72h.1-.1"/><path class="st21" d="M89.5 72h.1-.1"/><path class="st64" d="M89.5 72h.1-.1"/><path class="st63" d="M89.5 72h.1-.1"/><path class="st62" d="M89.5 72h.1-.1"/><path class="st18" d="M89.5 72h.1-.1"/><path class="st61" d="M89.5 72h.1-.1"/><path class="st60" d="M89.5 72h.1-.1"/><path class="st16" d="M89.5 72h.1-.1"/><path class="st15" d="M89.5 72h.1-.1"/><path class="st59" d="M89.5 72h.1-.1"/><path class="st14" d="M89.5 72h.1-.1"/><path class="st13" d="M89.5 72h.1-.1"/><path class="st57" d="M89.5 72h.1-.1"/><path class="st56" d="M89.5 72h.1-.1"/><path class="st55" d="M89.5 72h.1-.1"/></g></g><g class="st10"><defs><path id="SVGID_11_" class="st10" d="M89.6 72h-.1.1z"/></defs><clipPath id="SVGID_12_"><use xlink:href="#SVGID_11_" overflow="visible"/></clipPath><g clip-path="url(#SVGID_12_)"><path class="st55" d="M89.5 72h.1-.1"/><path class="st54" d="M89.5 72h.1-.1"/><path class="st53" d="M89.5 72h.1-.1"/><path class="st52" d="M89.5 72h.1-.1"/><path class="st51" d="M89.5 72h.1-.1"/><path class="st50" d="M89.5 72h.1-.1"/><path class="st49" d="M89.5 72h.1-.1"/><path class="st48" d="M89.5 72h.1-.1"/><path class="st47" d="M89.5 72h.1-.1"/><path class="st46" d="M89.5 72h.1-.1"/></g></g><path d="M88.2 71.2c.7.4 1.3.8 1.3.9 0 .1-.6-.2-1.3-.6-.7-.4-1.3-.8-1.3-.8 0-.2.6.1 1.3.5z" fill="#414141"/></g><g id="Screen_3_"><path class="st6" d="M84.8 70.2v1.9l7.3 4 .1-1.8zM84.8 72.8v4.9l7.3 4.2V77z"/><path class="st7" d="M84.8 78.2v5.2l7.3 4.2v-5.1z"/><path class="st9" d="M84.8 84v3.3l7.3 4v-3.1z"/></g></g></svg>